<svg width="288" height="72" viewBox="0 0 288 72" fill="none" xmlns="http://www.w3.org/2000/svg">
<path fill-rule="evenodd" clip-rule="evenodd" d="M57.1104 0C64.8029 0.000233864 71.0391 6.23685 71.0391 13.9297V57.1104C71.0388 64.8028 64.8028 71.0388 57.1104 71.0391H13.9297L13.5693 71.0342C6.04287 70.8433 0.000234604 64.6826 0 57.1104V13.9297C0 6.2367 6.2367 0 13.9297 0H57.1104ZM20.1973 38.3828H31.874V58.0781L50.8418 32.9287H39.165V13.2324L20.1973 38.3828Z" fill="white"/>
<path d="M150.938 29.8145H156.625V33.5781H150.938V46.4053C150.938 47.7591 151.142 48.8158 151.548 49.5752C151.987 50.3016 152.783 50.665 153.935 50.665C154.273 50.665 154.662 50.6316 155.102 50.5654C155.576 50.4665 156.085 50.3509 156.625 50.2188V53.9834C155.948 54.2146 155.271 54.3793 154.595 54.4785C153.918 54.6105 153.256 54.6767 152.613 54.6768C151.395 54.6768 150.261 54.4458 149.211 53.9834C148.196 53.5213 147.382 52.7778 146.772 51.7539C146.197 50.6976 145.909 49.344 145.909 47.6934V33.5781H134.562V46.4053C134.562 47.7591 134.765 48.8158 135.173 49.5752C135.612 50.3016 136.408 50.665 137.56 50.665C137.898 50.665 138.287 50.6316 138.727 50.5654C139.201 50.4666 139.71 50.3509 140.25 50.2188V53.9834C139.573 54.2146 138.896 54.3792 138.22 54.4785C137.543 54.6105 136.881 54.6767 136.238 54.6768C135.02 54.6768 133.886 54.4458 132.836 53.9834C131.821 53.5213 131.007 52.7778 130.397 51.7539C129.822 50.6976 129.534 49.344 129.534 47.6934V33.5781H124.558V29.8145H129.534V23.5742L134.562 20.8506V29.8145H145.909V23.5742L150.938 20.8506V29.8145Z" fill="white"/>
<path d="M219.277 29.8145H224.965V33.5781H219.277V46.4053C219.277 47.759 219.481 48.8158 219.887 49.5752C220.326 50.3017 221.123 50.665 222.274 50.665C222.613 50.665 223.001 50.6316 223.44 50.5654C223.915 50.4665 224.425 50.3509 224.965 50.2188V53.9834C224.288 54.2146 223.611 54.3792 222.935 54.4785C222.258 54.6105 221.595 54.6768 220.952 54.6768C219.733 54.6767 218.6 54.4458 217.55 53.9834C216.535 53.5213 215.722 52.7778 215.112 51.7539C214.537 50.6976 214.249 49.3441 214.249 47.6934V33.5781H209.272V29.8145H214.249V23.5742L219.277 20.8506V29.8145Z" fill="white"/>
<path fill-rule="evenodd" clip-rule="evenodd" d="M170.126 29.3545C172.091 29.3545 173.783 29.6844 175.206 30.3447C176.629 30.9721 177.797 31.8639 178.711 33.0195C179.623 34.1421 180.302 35.4133 180.741 36.833C181.216 38.2527 181.451 39.7551 181.451 41.3398C181.451 41.5049 181.435 41.8187 181.401 42.2812C181.401 42.7101 181.367 43.1228 181.3 43.5186H163.576C163.677 45.6978 164.356 47.3827 165.608 48.5713C166.895 49.7267 168.586 50.3037 170.686 50.3037C172.108 50.3037 173.377 50.0895 174.495 49.6602C175.611 49.198 176.645 48.4878 177.593 47.5303L180.641 50.6016C179.659 51.5593 178.642 52.3352 177.593 52.9297C176.578 53.5237 175.493 53.9529 174.342 54.2168C173.226 54.5142 171.955 54.6621 170.534 54.6621C168.502 54.6621 166.741 54.3321 165.253 53.6719C163.763 53.0116 162.527 52.1035 161.544 50.9482C160.562 49.7593 159.818 48.422 159.31 46.9365C158.835 45.4176 158.6 43.8325 158.6 42.1816C158.6 40.5311 158.835 38.9465 159.31 37.4277C159.784 35.8759 160.495 34.5052 161.442 33.3164C162.39 32.095 163.576 31.1377 164.998 30.4443C166.452 29.7179 168.163 29.3545 170.126 29.3545ZM170.279 33.416C168.89 33.4161 167.705 33.7291 166.724 34.3564C165.742 34.9507 164.982 35.744 164.439 36.7344C163.931 37.7247 163.626 38.7979 163.525 39.9531H176.661C176.672 39.8047 176.679 39.6564 176.679 39.5078C176.679 38.7486 176.543 38.0048 176.273 37.2783C176.002 36.5526 175.595 35.9088 175.053 35.3477C174.513 34.7533 173.834 34.2913 173.022 33.9609C172.243 33.5979 171.328 33.416 170.279 33.416Z" fill="white"/>
<path fill-rule="evenodd" clip-rule="evenodd" d="M250.049 29.3545C252.453 29.3545 254.569 29.8998 256.397 30.9893C258.226 32.0788 259.665 33.5813 260.714 35.4961C261.798 37.3782 262.338 39.541 262.338 41.9844C262.338 44.4274 261.798 46.6067 260.714 48.5215C259.665 50.4032 258.209 51.9055 256.347 53.0283C254.518 54.1178 252.419 54.6621 250.049 54.6621C247.68 54.6621 245.564 54.1177 243.702 53.0283C241.838 51.9386 240.367 50.4363 239.282 48.5215C238.234 46.6067 237.708 44.4274 237.708 41.9844C237.708 39.541 238.234 37.3782 239.282 35.4961C240.333 33.5812 241.787 32.0788 243.649 30.9893C245.547 29.8997 247.68 29.3545 250.049 29.3545ZM250.049 33.6143C248.525 33.6143 247.205 33.9609 246.087 34.6543C245.005 35.3478 244.158 36.3217 243.549 37.5762C242.973 38.7979 242.685 40.2673 242.685 41.9844C242.685 43.6679 242.973 45.1369 243.549 46.3916C244.158 47.646 245.005 48.6201 246.087 49.3135C247.205 50.0072 248.525 50.3535 250.049 50.3535C251.539 50.3535 252.825 50.0072 253.909 49.3135C255.027 48.6201 255.872 47.646 256.447 46.3916C257.057 45.1369 257.361 43.6679 257.361 41.9844C257.361 40.2673 257.057 38.781 256.447 37.5264C255.872 36.2719 255.027 35.3147 253.909 34.6543C252.825 33.961 251.539 33.6143 250.049 33.6143Z" fill="white"/>
<path fill-rule="evenodd" clip-rule="evenodd" d="M127.22 54.3008H121.581L118.742 46.625H104.273L101.42 54.3008H95.7324L109.495 19.7812H113.507L127.22 54.3008ZM105.948 42.1182H117.076L111.526 27.1113L105.948 42.1182Z" fill="white"/>
<path d="M233.525 54.3008H228.549V29.8848H233.525V54.3008Z" fill="white"/>
<path d="M198.214 29.3545C200.99 29.3545 203.157 30.1467 204.716 31.7314C206.307 33.2833 207.102 35.5619 207.102 38.5664V54.2168H202.125V40.3496C202.125 38.0053 201.685 36.2879 200.805 35.1982C199.958 34.109 198.638 33.5645 196.844 33.5645C195.488 33.5645 194.356 33.8618 193.441 34.4561C192.561 35.0501 191.884 35.9911 191.409 37.2783C190.934 38.5662 190.699 40.201 190.699 42.1816V54.2168H185.67V29.8008H190.699V33.1914C190.959 32.7832 191.245 32.4116 191.561 32.0781C192.407 31.1869 193.391 30.5101 194.507 30.0479C195.658 29.5857 196.894 29.3545 198.214 29.3545Z" fill="white"/>
<path d="M279.112 29.3545C281.888 29.3545 284.055 30.1468 285.612 31.7314C287.203 33.2833 288 35.5619 288 38.5664V54.2168H283.021V40.3496C283.021 38.0053 282.583 36.2879 281.702 35.1982C280.855 34.1088 279.535 33.5645 277.74 33.5645C276.387 33.5645 275.252 33.8618 274.338 34.4561C273.457 35.0501 272.78 35.9912 272.306 37.2783C271.833 38.5662 271.596 40.201 271.596 42.1816V54.2168H266.568V29.8008H271.596V33.1934C271.855 32.7844 272.143 32.4121 272.459 32.0781C273.306 31.1869 274.287 30.5102 275.403 30.0479C276.555 29.5858 277.791 29.3545 279.112 29.3545Z" fill="white"/>
<path d="M233.83 25.6748H228.193V19.7812H233.83V25.6748Z" fill="white"/>
</svg>
