<svg width="130" height="28" viewBox="0 0 130 28" fill="none" xmlns="http://www.w3.org/2000/svg">
<path d="M64.8102 22.0843H68.5783V14.5237C68.5783 11.8955 69.7448 10.1233 71.8088 10.1233C73.5435 10.1233 74.5005 11.2457 74.5005 13.0173V22.0848H78.2687V14.494C78.2687 11.8658 79.4351 10.1233 81.4691 10.1233C83.2333 10.1233 84.2203 11.2457 84.2203 13.0173V22.0848H87.989V11.984C87.989 9.05988 85.8655 6.96313 82.6056 6.96313C80.2128 6.96313 78.4181 8.26265 77.6105 9.76902C76.9228 7.96721 75.3076 6.96313 72.9153 6.96313C70.8218 6.96313 69.4159 7.9969 68.5783 9.47359V7.19967H64.8102V22.0843ZM98.0869 22.3204C102.663 22.3204 105.953 19.0715 105.953 14.642C105.953 10.2119 102.663 6.96313 98.0869 6.96313C93.5106 6.96313 90.2206 10.2119 90.2206 14.642C90.2206 19.072 93.5106 22.3204 98.0869 22.3204ZM98.0869 19.1012C95.634 19.1012 94.0193 17.2999 94.0193 14.642C94.0193 11.984 95.634 10.1822 98.0869 10.1822C100.509 10.1822 102.154 11.984 102.154 14.642C102.154 17.2994 100.509 19.1012 98.0869 19.1012ZM110.257 4.92526C111.633 4.92526 112.649 3.92118 112.649 2.62165C112.649 1.35182 111.633 0.347736 110.257 0.347736C108.911 0.347736 107.924 1.35182 107.924 2.62165C107.924 3.92118 108.911 4.92526 110.257 4.92526ZM106.578 27.6956C109.928 27.6956 112.111 25.5395 112.111 22.2318V7.19967H108.343V21.7295C108.343 23.4427 107.625 24.4468 106.13 24.4468C105.89 24.4468 105.86 24.4468 105.531 24.4176L105.621 27.6362C105.621 27.6362 106.309 27.6956 106.578 27.6956ZM122.134 22.3204C126.71 22.3204 130 19.0715 130 14.642C130 10.2119 126.71 6.96313 122.134 6.96313C117.558 6.96313 114.268 10.2119 114.268 14.642C114.268 19.072 117.558 22.3204 122.134 22.3204ZM122.134 19.1012C119.681 19.1012 118.067 17.2999 118.067 14.642C118.067 11.984 119.681 10.1822 122.134 10.1822C124.557 10.1822 126.201 11.984 126.201 14.642C126.201 17.2994 124.557 19.1012 122.134 19.1012Z" fill="white"/>
<path fill-rule="evenodd" clip-rule="evenodd" d="M44.1003 22.6951L52.5967 8.19402C52.7963 7.85301 52.9259 7.47629 52.978 7.08551C53.03 6.69474 53.0035 6.29763 52.9 5.91703C52.7965 5.53643 52.618 5.17985 52.3748 4.86782C52.1316 4.55578 51.8285 4.29444 51.4829 4.09883C50.0279 3.27142 48.1674 3.76251 47.3273 5.19636L38.8305 19.697C38.6308 20.038 38.5012 20.4147 38.4492 20.8055C38.3971 21.1963 38.4236 21.5934 38.5271 21.974C38.6307 22.3546 38.8092 22.7111 39.0524 23.0232C39.2956 23.3352 39.5987 23.5966 39.9443 23.7922C41.3993 24.6201 43.2598 24.129 44.1003 22.6951ZM53.3586 0.897721C50.1095 -0.950325 45.9544 0.146237 44.0787 3.34832L35.5823 17.8489C33.7061 21.051 34.8194 25.1447 38.0686 26.9933C41.3177 28.8418 45.4727 27.7448 47.3485 24.5432L55.8453 10.0421C57.7211 6.84047 56.6077 2.74625 53.3586 0.897721ZM26.7773 22.7233L35.2741 8.22225C35.4738 7.88125 35.6033 7.50452 35.6554 7.11374C35.7074 6.72297 35.681 6.32586 35.5774 5.94526C35.4739 5.56466 35.2954 5.20808 35.0522 4.89604C34.809 4.58401 34.5059 4.32266 34.1603 4.12705C32.7053 3.29964 30.8448 3.79074 30.0043 5.22459L21.5079 19.7257C21.3083 20.0667 21.1788 20.4434 21.1268 20.8341C21.0748 21.2248 21.1013 21.6219 21.2048 22.0024C21.3083 22.3829 21.4868 22.7395 21.73 23.0515C21.9731 23.3635 22.2762 23.6248 22.6217 23.8204C24.0767 24.6483 25.9372 24.1572 26.7773 22.7233ZM36.036 0.926436C32.7869 -0.922097 28.6319 0.174953 26.7556 3.37654L18.2597 17.8776C16.384 21.0792 17.4973 25.1735 20.7465 27.0215C23.9956 28.87 28.1506 27.773 30.0264 24.5714L38.5227 10.0703C40.399 6.8687 39.2851 2.77448 36.036 0.926436ZM9.42861 22.7233L17.9255 8.22225C18.1251 7.88125 18.2547 7.50452 18.3068 7.11374C18.3588 6.72297 18.3323 6.32586 18.2288 5.94526C18.1253 5.56466 17.9468 5.20808 17.7036 4.89604C17.4604 4.58401 17.1572 4.32266 16.8116 4.12705C15.3567 3.29964 13.4962 3.79074 12.6561 5.22459L4.15924 19.7257C3.95967 20.0667 3.83016 20.4434 3.77814 20.8341C3.72613 21.2248 3.75264 21.6219 3.85616 22.0024C3.95967 22.3829 4.13815 22.7395 4.38132 23.0515C4.62449 23.3635 4.92755 23.6248 5.27308 23.8204C6.72806 24.6483 8.58856 24.1572 9.42861 22.7233ZM18.6874 0.926436C15.4383 -0.922097 11.2832 0.174953 9.40699 3.37654L0.9111 17.8776C-0.964641 21.0792 0.148712 25.1735 3.39832 27.0215C6.64745 28.87 10.802 27.773 12.6777 24.5714L21.1736 10.0703C23.0499 6.8687 21.9365 2.77448 18.6874 0.926436Z" fill="white"/>
</svg>
