<svg width="192" height="43" viewBox="0 0 192 43" fill="none" xmlns="http://www.w3.org/2000/svg">
<path d="M171.131 0C182.657 0.00018195 192 9.6075 192 21.4587C192 33.31 182.657 42.9173 171.131 42.9175C159.606 42.9175 150.261 33.3101 150.261 21.4587C150.261 9.60738 159.606 0 171.131 0Z" fill="white"/>
<path fill-rule="evenodd" clip-rule="evenodd" d="M32.8677 13.0465C35.38 13.0466 37.5621 13.6444 39.4134 14.8412C41.2977 16.0038 42.7353 17.629 43.7273 19.7149C44.7519 21.8008 45.2645 24.1772 45.2645 26.8444C45.2645 27.4256 45.0829 27.9038 44.7197 28.2799C44.3559 28.6218 43.8925 28.7933 43.3306 28.7933H23.6711C23.8295 30.237 24.2334 31.5541 24.8835 32.7434C25.7429 34.3162 26.9166 35.5471 28.4041 36.4361C29.9247 37.3251 31.6599 37.7697 33.6101 37.7698C34.7342 37.7698 35.8763 37.565 37.0334 37.1546C38.2232 36.7444 39.1653 36.2313 39.8594 35.6159C40.2561 35.3081 40.7031 35.1534 41.1991 35.1534C41.7276 35.1193 42.1572 35.2572 42.4879 35.565C42.9836 36.0092 43.2318 36.4877 43.2318 37.0005C43.2649 37.5134 43.0492 37.9579 42.5867 38.3341C41.4957 39.2914 40.1069 40.0777 38.421 40.6932C36.735 41.3087 35.1309 41.6167 33.6101 41.6167C30.8996 41.6166 28.5032 41.0185 26.4208 39.822C24.3379 38.5909 22.7013 36.8975 21.5111 34.7432C20.321 32.5891 19.7255 30.1274 19.7254 27.3578C19.7254 24.554 20.2868 22.091 21.4108 19.9709C22.5348 17.8166 24.0735 16.1245 26.0241 14.8936C28.0078 13.6626 30.2892 13.0465 32.8677 13.0465ZM32.8677 16.8934C30.9837 16.8934 29.33 17.3381 27.9086 18.2271C26.5201 19.1161 25.4447 20.365 24.6844 21.9722C24.2203 22.9758 23.9063 24.0701 23.7384 25.2547H41.3847C41.2617 23.9776 40.9546 22.7971 40.4552 21.7147C39.7609 20.2103 38.7686 19.031 37.4794 18.1762C36.1902 17.3213 34.6527 16.8935 32.8677 16.8934Z" fill="white"/>
<path d="M62.5066 13.0465C64.4899 13.0465 66.3247 13.4564 68.0105 14.2769C69.6965 15.0633 71.1848 16.2607 72.4741 17.8678C72.871 18.3465 73.0031 18.8427 72.8708 19.3557C72.7716 19.8343 72.4745 20.2622 71.9787 20.6385C71.582 20.9119 71.1348 21.0137 70.639 20.9453C70.1765 20.8425 69.7468 20.5693 69.3502 20.125C67.5321 18.005 65.2507 16.9443 62.5066 16.9443C60.6883 16.9443 59.0845 17.3889 57.6958 18.2779C56.3405 19.167 55.2829 20.3992 54.5225 21.9722C53.7624 23.5109 53.3819 25.3063 53.3819 27.3578C53.382 29.3406 53.7788 31.1184 54.5719 32.691C55.3987 34.2298 56.5226 35.4621 57.9443 36.3853C59.3989 37.2744 61.0523 37.7189 62.9033 37.7189C64.1597 37.7189 65.2839 37.5475 66.2757 37.2055C67.3006 36.8639 68.2095 36.3338 69.0029 35.6159C69.4658 35.2396 69.9293 35.0347 70.392 35.0007C70.8548 34.9668 71.2842 35.1031 71.6808 35.4108C72.1106 35.8212 72.3588 36.2826 72.4247 36.7954C72.4908 37.3082 72.3258 37.7698 71.9293 38.18C69.516 40.471 66.5071 41.6167 62.9033 41.6167C60.2917 41.6167 57.9613 41.0005 55.9116 39.7696C53.8621 38.5046 52.2415 36.7954 51.0513 34.6414C49.8945 32.4873 49.3151 30.0589 49.315 27.3578C49.315 24.6221 49.8779 22.1761 51.0019 20.0218C52.1591 17.8678 53.7127 16.1755 55.6631 14.9445C57.6466 13.6792 59.9278 13.0465 62.5066 13.0465Z" fill="white"/>
<path fill-rule="evenodd" clip-rule="evenodd" d="M92.6905 13.0465C95.2701 13.0465 97.585 13.6792 99.6343 14.9445C101.717 16.1757 103.355 17.869 104.544 20.0233C105.767 22.1774 106.395 24.6223 106.429 27.3578V39.2053C106.429 39.855 106.23 40.386 105.833 40.7964C105.436 41.1725 104.924 41.3608 104.296 41.3608C103.701 41.3607 103.189 41.1726 102.758 40.7964C102.361 40.386 102.164 39.855 102.164 39.2053V36.4825C101.462 37.5777 99.4582 39.1996 98.5431 39.8729C96.6594 41.0353 94.5103 41.6167 92.0962 41.6167C89.5841 41.6167 87.3348 41.0007 85.3515 39.7696C83.3686 38.5048 81.798 36.7951 80.6409 34.6414C79.4853 32.4873 78.9061 30.0586 78.9061 27.3578C78.9061 24.6225 79.4996 22.1774 80.6903 20.0233C81.9134 17.869 83.5664 16.1757 85.6493 14.9445C87.7322 13.6793 90.0789 13.0466 92.6905 13.0465ZM92.6905 16.9068C90.873 16.9069 89.221 17.3686 87.7329 18.2914C86.2783 19.2151 85.1201 20.4636 84.2603 22.0365C83.4022 23.575 82.9715 25.336 82.9715 27.3189C82.9715 29.2681 83.4019 31.0298 84.2603 32.6027C85.1201 34.1758 86.2784 35.4232 87.7329 36.3463C89.2211 37.2356 90.8729 37.6799 92.6905 37.68C94.542 37.68 96.1793 37.2358 97.6001 36.3463C99.0562 35.4232 100.197 34.1757 101.023 32.6027C101.883 31.0298 102.312 29.2681 102.312 27.3189C102.312 25.336 101.883 23.5751 101.023 22.0365C100.197 20.4636 99.0563 19.2151 97.6001 18.2914C96.1793 17.3685 94.5419 16.9068 92.6905 16.9068Z" fill="white"/>
<path d="M12.5465 12.9956C14.2326 12.9956 15.5056 13.2519 16.365 13.765C17.2576 14.2778 17.5888 14.9789 17.3574 15.868C17.2582 16.3466 17.0428 16.6883 16.7122 16.8934C16.4147 17.0986 16.0508 17.2017 15.621 17.2017C15.2244 17.2017 14.761 17.1669 14.232 17.0984C12.2819 16.8592 10.5465 16.9959 9.02596 17.5086C7.53826 17.9874 6.34718 18.7914 5.45449 19.92C4.67367 20.9073 4.23488 22.065 4.13727 23.3927L4.11632 23.9719V39.2053C4.11632 39.8892 3.93354 40.4203 3.56997 40.7964C3.23947 41.1723 2.74403 41.3606 2.0836 41.3608C1.42237 41.3608 0.908423 41.1727 0.544851 40.7964C0.181225 40.4203 0 39.8891 0 39.2053V15.4579C0 14.7739 0.181229 14.243 0.544851 13.8668C0.908423 13.4906 1.42237 13.3024 2.0836 13.3024C2.74404 13.3026 3.23947 13.4911 3.56997 13.8668C3.93354 14.243 4.11632 14.7738 4.11632 15.4579V17.2676C4.98318 16.1115 6.02363 15.165 7.24023 14.4311C8.86016 13.4736 10.629 12.9956 12.5465 12.9956Z" fill="white"/>
<path d="M114.947 1.30076C115.543 1.30082 116.021 1.50572 116.385 1.91596C116.782 2.2921 116.981 2.80497 116.981 3.45471V32.2809C116.981 33.6831 117.244 34.8467 117.775 35.7701C118.335 36.6587 119.047 37.1035 119.906 37.1037H121.147C121.676 37.1038 122.105 37.3087 122.436 37.7189C122.767 38.0949 122.931 38.5902 122.931 39.2053C122.931 39.8549 122.684 40.386 122.187 40.7964C121.724 41.1726 121.112 41.3608 120.352 41.3608H119.906C118.518 41.3606 117.295 40.9841 116.237 40.2321C115.178 39.4455 114.352 38.3683 113.757 37.0005C113.162 35.6328 112.865 34.0591 112.865 32.2809V3.45471C112.865 2.80497 113.047 2.2921 113.41 1.91596C113.807 1.5056 114.319 1.30076 114.947 1.30076Z" fill="white"/>
<path d="M129.234 1.30076C129.829 1.30092 130.308 1.50568 130.673 1.91596C131.068 2.2921 131.267 2.80497 131.267 3.45471V32.2809C131.267 33.6831 131.532 34.8467 132.06 35.7701C132.623 36.6587 133.334 37.1036 134.192 37.1037H135.434C135.961 37.1039 136.392 37.3088 136.722 37.7189C137.054 38.0949 137.218 38.5903 137.219 39.2053C137.219 39.8549 136.97 40.386 136.475 40.7964C136.012 41.1727 135.4 41.3608 134.638 41.3608H134.192C132.805 41.3607 131.582 40.9841 130.525 40.2321C129.466 39.4455 128.639 38.3682 128.044 37.0005C127.448 35.6328 127.151 34.0591 127.151 32.2809V3.45471C127.151 2.80518 127.333 2.29207 127.696 1.91596C128.093 1.50548 128.606 1.30076 129.234 1.30076Z" fill="white"/>
</svg>
