<svg width="154" height="43" viewBox="0 0 154 43" fill="none" xmlns="http://www.w3.org/2000/svg">
<path d="M21.8936 0C26.4825 0 30.5422 0.365126 33.0117 0.924805C37.9351 1.93954 41.8125 5.74707 42.8457 10.582C43.4156 13.0071 43.7871 16.9935 43.7871 21.5C43.7871 26.0065 43.4156 29.9929 42.8457 32.418C41.8125 37.2529 37.9351 41.0604 33.0117 42.0752C30.5422 42.6348 26.4825 43 21.8936 43C17.3048 43 13.2458 42.6348 10.7764 42.0752C5.85277 41.0606 1.97462 37.2531 0.941406 32.418C0.371485 29.9929 5.24618e-08 26.0065 0 21.5C0 16.9935 0.371485 13.0071 0.941406 10.582C1.97462 5.74693 5.85277 1.93942 10.7764 0.924805C13.2458 0.365186 17.3048 1.6512e-06 21.8936 0ZM21.9062 9.48438C20.695 9.48438 19.636 9.61239 19.0615 9.80371L19.0537 9.80664C18.9492 9.84193 18.8605 9.8789 18.791 9.91797C18.6131 10.0104 18.4521 10.1304 18.3125 10.2734C17.4381 11.1229 15.4987 15.4781 13.6445 20.8574C12.0227 25.5626 10.9376 29.6852 10.8037 31.4463C10.8033 31.4606 10.8023 31.4758 10.8008 31.4912L10.7988 31.5078C10.7973 31.5323 10.7961 31.5566 10.7949 31.5801C10.7945 31.5944 10.7939 31.6087 10.7939 31.623C10.7939 32.2097 11.1688 32.7104 11.6953 32.9053C11.6972 32.906 11.6989 32.9066 11.7002 32.9072C12.4848 33.1815 13.8349 33.4165 15.5527 33.585C15.6191 33.5915 15.6979 33.5992 15.7891 33.6074C16.1576 33.6408 16.5058 33.4366 16.6514 33.1025C17.0708 32.1383 17.9486 31.4127 19.0146 31.1924C19.6571 31.0463 20.7134 30.9512 21.9072 30.9512C23.101 30.9512 24.1574 31.0463 24.7998 31.1924C25.8733 31.4143 26.7552 32.1486 27.1709 33.123C27.3081 33.4446 27.6426 33.6412 27.9961 33.6094C28.1014 33.5999 28.1913 33.5923 28.2656 33.585C29.9815 33.4165 31.3304 33.1813 32.1143 32.9072C32.1156 32.9066 32.1173 32.9059 32.1191 32.9053C32.6455 32.7103 33.0195 32.2096 33.0195 31.623C33.0195 31.6087 33.0199 31.5943 33.0195 31.5801C33.0183 31.5566 33.0162 31.5324 33.0146 31.5078L33.0137 31.4912C33.0122 31.4758 33.0111 31.4606 33.0107 31.4463C32.8769 29.6852 31.7908 25.5627 30.1689 20.8574C28.3148 15.4783 26.3764 11.1231 25.502 10.2734L25.5 10.2725C25.3618 10.1309 25.2013 10.0104 25.0234 9.91797C24.9539 9.8789 24.8653 9.84193 24.7607 9.80664L24.752 9.80371C24.1785 9.61274 23.1196 9.48439 21.9062 9.48438ZM74.1699 32.7285H69.9834V29.207C68.6755 31.4496 66.4316 32.7363 63.5156 32.7363C58.6558 32.7361 54.7686 28.5448 54.7686 23.3613C54.7687 18.1779 58.6559 14.0237 63.5156 14.0234C66.4316 14.0234 68.6755 15.3101 69.9834 17.5527V14.0156H74.1699V32.7285ZM136.854 32.7285H132.668V29.207C131.359 31.4496 129.116 32.7363 126.2 32.7363C121.34 32.7362 117.453 28.5449 117.453 23.3613C117.453 18.1778 121.34 14.0235 126.2 14.0234C129.116 14.0234 131.359 15.3101 132.668 17.5527V14.0156H136.854V32.7285ZM107.959 13.9736C111.51 13.9737 114.501 15.7018 115.847 18.3486L112.332 20.2969C111.584 18.8634 109.94 17.9073 107.959 17.9072C104.819 17.9072 102.538 20.2605 102.538 23.3486C102.538 26.4 104.856 28.7529 107.996 28.7529C110.127 28.7529 111.883 27.7605 112.706 26.1064L116.407 27.7607C115.024 30.7385 111.809 32.6865 107.996 32.6865C102.576 32.6865 98.4258 28.6793 98.4258 23.3486C98.4258 18.0179 102.538 13.9736 107.959 13.9736ZM82.5322 32.6787H78.3828V13.9658H82.5322V32.6787ZM90.8945 16.915C91.7168 15.1873 93.7727 13.9736 95.5674 13.9736C96.3666 13.9737 97.1357 14.0905 97.6904 14.2979C98.0168 14.4199 98.3057 14.555 98.5293 14.6689L96.8408 18.1455C96.3087 17.9869 95.7317 17.9072 95.1553 17.9072C93.1365 17.9074 90.8946 19.5622 90.8945 22.7236V32.6787H86.7451V13.9658H90.8945V16.915ZM145.216 32.6787H141.066V5.39355H145.216V32.6787ZM153.578 32.6787H149.429V5.39355H153.578V32.6787ZM64.5068 17.9072C61.4043 17.9072 58.9367 20.3332 58.9365 23.3477C58.9365 26.399 61.4042 28.8262 64.5068 28.8262C67.6842 28.826 70.0771 26.4724 70.0771 23.3477C70.077 20.2598 67.6841 17.9074 64.5068 17.9072ZM126.972 17.9072C123.869 17.9074 121.402 20.3333 121.401 23.3477C121.401 26.399 123.869 28.826 126.972 28.8262C130.149 28.8262 132.542 26.4725 132.542 23.3477C132.542 20.2597 130.149 17.9072 126.972 17.9072ZM80.4395 5.39355C81.897 5.39374 83.1309 6.60698 83.1309 8.00391C83.1308 9.4743 81.897 10.6502 80.4395 10.6504C78.9812 10.6504 77.7852 9.47441 77.7852 8.00391C77.7852 6.60688 78.9812 5.39355 80.4395 5.39355Z" fill="white"/>
</svg>
