<svg width="401" height="418" viewBox="0 0 401 418" fill="none" xmlns="http://www.w3.org/2000/svg">
<path d="M201.632 417.332C210.432 417.332 217.1 403.599 236.7 344.132C245.099 318.801 252.698 297.203 253.632 296.266C254.966 294.799 256.3 295.599 260.433 300.266C271.1 312.399 300.566 341.599 304.033 343.466C312.166 347.732 316.699 343.998 315.366 334.132C314.832 331.065 310.033 313.732 304.566 295.332C299.099 277.065 294.7 261.865 294.966 261.599C295.237 261.333 303.368 263.333 312.833 265.999C335.633 272.266 372.433 279.865 385.766 280.799C395.499 281.599 396.7 281.465 398.966 278.932C404.166 273.065 401.632 270.131 358.7 230.132C343.1 215.599 330.566 202.932 330.833 202.132C331.1 201.331 338.566 196.398 347.366 191.332C369.366 178.532 382.033 169.065 384.7 163.332C386.833 158.799 386.832 158.532 384.166 155.865C380.432 151.999 363.766 150.265 342.299 151.198C333.101 151.598 325.102 151.599 324.7 151.065C324.167 150.665 330.833 142.932 339.5 134.132C364.433 108.399 385.499 83.9989 390.166 75.0654C393.899 68.1321 391.633 62.665 385.099 62.665C382.298 62.6656 355.899 75.7326 319.233 95.0654C304.566 102.799 292.3 108.932 291.766 108.665C291.233 108.398 291.1 94.3988 291.5 77.7324C292.166 43.0664 291.099 36.9325 284.966 36.2656C280.433 35.7323 279.499 37.1987 263.766 66.665C250.3 92.1305 244.967 101.331 243.5 101.332C242.966 101.332 240.299 97.3322 237.366 92.2656C234.566 87.3323 228.166 76.132 223.233 67.332C207.633 39.866 190.167 12.1332 184.7 5.99902C180.833 1.46577 178.566 -0.00092348 175.766 -0.000976562C172.566 -0.000976562 171.767 0.798834 170.433 4.79883C168.567 10.5322 168.566 10.3988 176.033 75.0654C178.966 101.199 181.1 123.066 180.7 123.466C180.299 123.866 170.166 118.398 158.299 111.198C135.633 97.5984 121.366 90.7985 115.766 90.665C109.366 90.665 106.433 94.1325 106.433 101.466C106.433 109.199 108.833 115.733 124.033 149.332C136.566 176.932 138.566 183.198 135.766 185.865C132.166 189.332 121.366 191.998 65.6325 203.198C35.3671 209.331 8.3015 215.465 5.49967 216.932C-3.96699 221.465 -0.900522 229.599 12.2995 234.532C16.033 235.866 35.3666 240.665 55.2331 245.198C110.165 257.598 143.765 267.998 143.766 272.665C143.766 273.732 139.099 279.465 133.366 285.599C112.699 307.599 100.033 322.666 99.0993 326.266C98.4327 329.065 98.8327 330.399 101.099 332.266C103.499 334.266 104.566 334.265 109.766 332.799C112.967 331.732 129.366 323.732 146.033 314.932C162.699 306.132 177.9 298.666 179.766 298.266C185.233 296.932 186.833 299.065 187.366 307.599C187.633 311.865 188.7 333.732 189.766 356.266C192.433 409.065 194.033 417.332 201.632 417.332ZM202.566 407.999C200.033 407.999 198.967 396.132 196.433 339.865C195.367 315.199 193.9 297.732 192.966 295.599C188.966 286.799 178.166 288.532 153.099 301.999C126.166 316.399 112.966 322.932 112.166 322.132C111.234 321.331 115.635 316.13 134.299 296.266C150.433 278.933 154.032 273.466 151.899 269.466C146.966 260.399 121.9 251.999 50.4333 235.332C22.1684 228.799 11.7676 225.732 11.7663 223.999C11.7663 222.532 12.1663 222.532 67.7663 211.332C122.433 200.399 131.367 198.266 138.7 194.532C149.633 188.932 148.832 183.065 131.366 144.266C117.766 114.399 113.766 103.598 114.966 100.665C116.167 97.3325 126.301 102 155.5 119.466C181.233 134.932 186.699 137.465 188.166 134.932C188.566 134.398 188.299 130.665 187.632 126.665C185.499 112.93 176.566 16.3983 176.966 10.9316C177.233 8.13213 178.167 9.0659 184.966 19.0654C193.367 31.7323 214.833 67.9987 225.5 87.5986C234.3 103.999 239.366 110.665 243.233 110.665C247.766 110.665 255.233 100.132 267.5 76.2656C274.432 63.0671 280.831 51.0679 281.899 49.7324C283.499 47.5991 283.766 47.7324 284.033 51.999C284.166 54.5334 284.3 70.1326 284.433 86.665V116.665L288.033 117.065C290.7 117.332 303.9 111.199 335.632 94.7988C359.766 82.2655 380.166 71.999 380.966 71.999C381.766 71.9991 382.433 72.3986 382.433 72.9316C382.433 75.465 349.1 113.065 330.7 131.599C319.5 142.799 310.433 152.666 310.433 153.732C310.433 158.265 313.234 158.665 345.233 158.665C362.698 158.665 377.229 159.199 377.632 159.865C379.499 162.665 365.366 172.932 340.566 186.799C325.633 195.065 321.766 198.932 323.233 204.532C323.767 206.933 335.101 218.533 357.233 239.599C375.498 256.797 390.43 271.463 390.433 272.132C390.433 275.199 372.433 271.865 328.833 261.065C286.833 250.665 286.433 250.666 286.433 259.466C286.434 261.867 289.367 273.2 292.966 284.532C302.166 313.199 307.766 334.665 306.166 334.665C304.164 334.663 290.699 321.464 274.7 303.732C258.167 285.333 255.5 283.332 251.766 285.332C247.633 287.599 244.833 294.265 232.433 332.665C215.5 384.932 206.433 407.999 202.566 407.999ZM159.233 209.599C155.233 242.532 184.966 269.733 221.099 266.133C257.766 262.399 294.033 231.332 298.299 199.999C301.633 174.799 288.7 149.199 266.966 138.532C259.367 134.799 256.7 134.265 245.367 133.865C237.1 133.599 229.633 134.132 224.833 135.332C205.366 140.265 182.833 156.532 171.5 173.865C165.9 182.665 160.566 197.865 159.233 209.599ZM256.7 244.532C216.033 271.199 167.766 255.199 167.766 215.199C167.766 197.866 176.7 175.066 187.633 164.133C193.5 158.399 213.633 147.599 223.9 144.666C234.967 141.599 254.699 142.532 262.833 146.532C271.499 150.799 281.366 160.799 286.033 170.266C289.366 177.332 289.766 179.332 289.766 191.999C289.766 204.799 289.367 206.666 285.9 213.999C281.367 223.199 268.3 236.932 256.7 244.532ZM243.366 187.865C248.299 190.532 252.833 184.265 248.833 180.265C247.099 178.532 245.633 178.399 242.833 179.599C240.299 180.532 240.699 186.399 243.366 187.865ZM204.033 206.399C208.166 206.933 210.433 202.532 207.766 199.332C205.633 196.799 201.233 196.799 200.299 199.199C198.833 202.933 200.433 205.999 204.033 206.399ZM228.433 238.667C237.633 244.4 246.567 240.267 248.433 229.467C249.233 224.267 247.233 214 244.833 210.934C241.899 207.334 241.099 209.733 241.899 219.6C242.699 228.533 242.433 230.4 240.299 233.066C238.166 235.733 237.233 236 234.299 234.934C231.099 233.6 226.166 228.533 223.099 223.333C221.899 221.333 221.499 221.334 220.166 222.934C217.766 225.734 222.834 235.2 228.433 238.667Z" fill="#7C7873"/>
</svg>
