<svg width="21" height="20" viewBox="0 0 21 20" fill="none" xmlns="http://www.w3.org/2000/svg">
<path d="M19.0714 0C19.8304 0 20.5 0.669643 20.5 1.47321V18.5714C20.5 19.375 19.8304 20 19.0714 20H1.88393C1.125 20 0.5 19.375 0.5 18.5714V1.47321C0.5 0.669643 1.125 0 1.88393 0H19.0714ZM6.52679 17.1429V7.63393H3.58036V17.1429H6.52679ZM5.05357 6.29464C5.99107 6.29464 6.75 5.53571 6.75 4.59821C6.75 3.66071 5.99107 2.85714 5.05357 2.85714C4.07143 2.85714 3.3125 3.66071 3.3125 4.59821C3.3125 5.53571 4.07143 6.29464 5.05357 6.29464ZM17.6429 17.1429V11.9196C17.6429 9.375 17.0625 7.36607 14.0714 7.36607C12.6429 7.36607 11.6607 8.16964 11.2589 8.92857H11.2143V7.63393H8.40179V17.1429H11.3482V12.4554C11.3482 11.2054 11.5714 10 13.1339 10C14.6518 10 14.6518 11.4286 14.6518 12.5V17.1429H17.6429Z" fill="white"/>
</svg>
