<svg width="176" height="40" viewBox="0 0 176 40" fill="none" xmlns="http://www.w3.org/2000/svg">
<path d="M167.826 0C173.057 5.23105 176.008 12.206 176.008 19.583C176.008 26.9601 173.057 34.0697 167.826 39.3009L164.473 35.9475C166.619 33.8016 168.362 31.253 169.435 28.4366C170.642 25.6198 171.18 22.668 171.18 19.583C171.179 16.4981 170.642 13.5473 169.435 10.7307C168.228 7.91419 166.619 5.36571 164.473 3.21973L167.826 0Z" fill="white"/>
<path fill-rule="evenodd" clip-rule="evenodd" d="M44.1535 29.5094H39.3252V27.8995C37.5816 29.3748 35.4356 30.0463 33.1556 30.0464C31.8143 30.0464 30.4724 29.7774 29.2652 29.2409C28.058 28.7043 26.9844 27.8993 26.0455 26.9603C24.168 24.8144 23.2293 22.1321 23.2292 19.3158C23.095 16.499 24.1676 13.8155 26.0455 11.8035C26.9844 10.7304 28.058 9.92588 29.2652 9.38935C30.4724 8.85284 31.8143 8.58507 33.1556 8.58507C35.4355 8.71929 37.5817 9.38908 39.3252 10.8643V0.402139H44.1535V29.5094ZM33.8263 13.547C33.1556 13.547 32.35 13.6821 31.6793 13.9504C31.0089 14.2187 30.4722 14.6205 29.9359 15.1568C28.8628 16.2299 28.326 17.7062 28.326 19.3158C28.3261 20.7911 28.8629 22.4004 29.9359 23.4734C30.4724 24.0099 31.0087 24.4128 31.6793 24.6811C32.35 24.9494 33.0215 25.0832 33.8263 25.0832C34.4968 25.0832 35.3014 24.9493 35.9719 24.6811C36.6425 24.4128 37.1788 24.0099 37.7153 23.4734C38.7883 22.4004 39.3251 20.9251 39.3252 19.3158C39.3252 17.8403 38.7884 16.2299 37.7153 15.1568C37.179 14.6205 36.6423 14.2186 35.9719 13.9504C35.1673 13.6822 34.4967 13.5471 33.8263 13.547Z" fill="white"/>
<path d="M125.975 19.8515C125.975 22.8022 127.987 25.0829 130.67 25.0832C133.352 25.0832 135.364 22.8024 135.364 19.8515V9.25574H140.194V20.3886C140.194 21.7298 140.06 22.9369 139.523 24.144C138.987 25.3512 138.315 26.4248 137.376 27.3638C136.438 28.3024 135.498 28.9735 134.292 29.3758C133.084 29.9121 131.877 30.0464 130.67 30.0464C129.463 30.0464 128.121 29.9122 126.914 29.3758C125.707 28.8393 124.634 28.1685 123.829 27.3638C122.89 26.4248 122.22 25.3512 121.817 24.144C121.415 22.9369 121.147 21.7298 121.147 20.3886V9.25574H125.975V19.8515Z" fill="white"/>
<path fill-rule="evenodd" clip-rule="evenodd" d="M9.93634 8.58507C12.2166 8.7192 14.3635 9.38883 16.1073 10.8643H16.1204V9.25574H20.9486V29.3758H16.1204V27.7659C14.3768 29.2412 12.2308 29.9114 9.95074 29.9115C8.60948 29.9115 7.2675 29.6437 6.06035 29.1072C4.85315 28.5707 3.77955 27.7656 2.84062 26.8267C0.962873 24.6806 0.0112382 21.9975 0.0112382 19.1808C-0.122809 16.3642 0.949805 13.6818 2.82752 11.6699C3.76645 10.7309 4.84005 9.92588 6.04725 9.38935C7.25425 8.85297 8.59526 8.58512 9.93634 8.58507ZM10.6214 13.547C9.95074 13.547 9.14516 13.6821 8.47449 13.9504C7.80404 14.2186 7.2674 14.6205 6.73102 15.1568C5.65795 16.2299 5.12115 17.7062 5.12115 19.3158C5.12127 20.7911 5.65807 22.4004 6.73102 23.4734C7.26753 24.0099 7.80384 24.4128 8.47449 24.6811C9.14514 24.9494 9.81663 25.0832 10.6214 25.0832C11.2919 25.0831 12.0966 24.9493 12.767 24.6811C13.4377 24.4128 13.974 24.0099 14.5105 23.4734C15.5835 22.4004 16.1203 20.9252 16.1204 19.3158C16.1204 17.8403 15.5836 16.2299 14.5105 15.1568C13.9741 14.6205 13.4375 14.2186 12.767 13.9504C11.9625 13.6822 11.2919 13.5471 10.6214 13.547Z" fill="white"/>
<path d="M110.818 8.58507C115.379 8.58508 118.061 10.5971 118.598 13.9504L114.038 14.8883C113.635 13.5472 112.427 12.8763 110.55 12.8763C108.94 12.8764 107.733 13.5481 107.733 14.6211C107.734 15.2915 108.27 15.8273 109.477 16.2296L113.634 17.571C117.39 18.9122 118.866 20.6564 118.866 23.607C118.866 27.7651 115.512 29.9115 110.952 29.9115C106.123 29.9114 103.173 27.6316 102.637 24.0104L107.196 23.3398C107.599 24.815 108.941 25.7539 111.087 25.7539C112.964 25.7538 114.305 25.083 114.305 23.7419C114.305 22.9372 113.635 22.2659 112.026 21.8635L107.867 20.5222C104.514 19.4491 103.039 17.705 103.039 14.8883C103.039 10.7305 106.258 8.58507 110.818 8.58507Z" fill="white"/>
<path d="M150.522 8.58507C155.083 8.58508 157.765 10.5971 158.302 13.9504L153.742 14.8883C153.34 13.5472 152.132 12.8763 150.254 12.8763C148.644 12.8764 147.438 13.5481 147.438 14.6211C147.438 15.2915 147.974 15.8273 149.181 16.2296L153.339 17.571C157.094 18.9122 158.57 20.6564 158.57 23.607C158.57 27.7651 155.217 29.9115 150.656 29.9115C145.828 29.9114 142.878 27.6316 142.341 24.0104L146.901 23.3398C147.303 24.815 148.645 25.7539 150.791 25.7539C152.669 25.7538 154.009 25.083 154.009 23.7419C154.009 22.9372 153.205 22.2659 151.73 21.8635L147.571 20.5222C144.218 19.4491 142.743 17.705 142.743 14.8883C142.743 10.7305 145.962 8.58507 150.522 8.58507Z" fill="white"/>
<path fill-rule="evenodd" clip-rule="evenodd" d="M77.4197 8.58507C78.7609 8.58513 80.2366 8.85287 81.4437 9.38935C82.7848 9.92588 83.8576 10.731 84.9306 11.6699C85.8695 12.6088 86.6746 13.8156 87.2111 15.1568C87.7477 16.4982 88.0154 17.8403 88.0154 19.3158C88.0154 19.8522 88.0159 20.5229 87.8818 21.0592H71.6509C72.0532 22.4005 72.7248 23.4729 73.7978 24.2776C74.8708 25.0824 76.212 25.4854 77.5533 25.4854C78.4922 25.4854 79.297 25.3507 80.2359 24.9483C81.0405 24.546 81.845 24.0101 82.3816 23.3398L87.0762 24.6811C86.1374 26.0222 85.0645 27.2293 83.5893 28.168C82.248 29.107 80.6378 29.6438 79.0282 29.7779C77.4188 30.046 75.6752 29.7781 74.1999 29.3758C72.5903 28.8392 71.1146 28.0334 69.9074 26.9603C68.8346 26.0214 68.1633 24.8145 67.6269 23.4734C67.0905 22.1323 66.8226 20.7909 66.8226 19.3158C66.8226 17.9744 67.0909 16.4982 67.4932 15.1568C68.0298 13.8156 68.8349 12.6088 69.7738 11.6699C70.7126 10.731 71.9195 9.92588 73.2607 9.38935C74.6021 8.85281 75.9442 8.58507 77.4197 8.58507ZM77.2847 13.0112C76.0778 13.0113 74.8707 13.4131 73.7978 14.2176C72.8589 15.0224 72.0541 16.0965 71.7858 17.3038H82.9186C82.5162 16.0966 81.8461 15.0224 80.773 14.2176C79.6999 13.4128 78.4919 13.0112 77.2847 13.0112Z" fill="white"/>
<path d="M56.494 23.3398L61.9943 9.25574H66.9562L58.641 29.3758H54.0799L45.8983 9.25574H50.8602L56.494 23.3398Z" fill="white"/>
<path d="M101.429 14.084C100.758 13.8158 100.087 13.6819 99.4168 13.6819C98.7462 13.6819 98.2098 13.8163 97.6733 13.9504C97.1369 14.2186 96.6007 14.4868 96.1984 15.0232C95.796 15.4255 95.3934 15.9617 95.2592 16.4982C94.991 17.0345 94.9906 17.7052 94.9906 18.2416V29.3758H90.1623V9.25574H94.9906V11.6162C96.3469 9.72654 98.5721 8.71874 101.429 8.71868V14.084Z" fill="white"/>
</svg>
