<svg width="73" height="67" viewBox="0 0 73 67" fill="none" xmlns="http://www.w3.org/2000/svg">
<path d="M60.3555 40.1963L55.5967 46.6387L55.8418 46.7861C56.9543 45.3351 58.433 44.2063 60.126 43.5156C61.6141 42.9596 62.9064 42.7469 64.2637 42.9268C65.5423 43.1218 66.7636 43.5908 67.8447 44.3008C69.463 45.2665 70.7602 46.6885 71.5732 48.3887C72.3745 50.0239 72.5216 51.921 72.2764 53.916C71.9986 56.0082 71.2733 58.0158 70.1504 59.8027C69.0347 61.6564 67.5483 63.2601 65.7842 64.5127C64.2359 65.5892 62.4311 66.2383 60.5518 66.3936C58.6627 66.4899 56.7928 65.9737 55.2207 64.9219C53.9301 64.1753 52.8148 63.16 51.9502 61.9453C51.1058 60.7629 50.6592 59.3425 50.6748 57.8896C50.6912 56.2544 51.1654 54.4231 52.2773 52.3301L51.917 52.1006L49.7256 57.3008L45.0488 64.9385L39.8164 61.7168L54.9912 36.9258L60.3555 40.1963ZM22.5479 35.3711C24.5578 34.5172 26.7584 34.2127 28.9248 34.4883C30.8381 34.8153 32.5883 35.5184 33.9619 36.7939C35.3399 38.0896 36.3931 39.6919 37.0361 41.4707L41.5664 53.6533L36.1855 55.6484L33.5693 47.374L33.1768 47.5215C35.8913 54.8639 30.462 57.9217 27.1914 59.1318H27.208C25.3604 59.913 23.3027 60.0455 21.3701 59.5078C19.5551 58.9845 18.3123 57.6603 17.5273 55.5674C17.0951 54.5095 16.9666 53.3514 17.1572 52.2246C17.3479 51.0977 17.8501 50.0463 18.6064 49.1895C20.1273 47.2925 22.548 45.8044 25.7041 44.627C27.4046 43.9893 29.2847 43.4495 31.165 42.8936L31.0674 42.6318C30.5441 41.6507 29.8572 40.997 29.1377 40.6699C28.3335 40.2815 27.4461 40.0958 26.5537 40.1299C25.6073 40.1793 24.6744 40.3782 23.79 40.7188C22.357 41.2457 21.0365 42.0387 19.8984 43.0566C18.7219 44.0175 17.7393 45.1943 17.0039 46.5234L16.6113 46.6709L14.5186 41.0293C15.4667 39.7682 16.6287 38.6833 17.9521 37.8242C19.3749 36.843 20.8471 35.9925 22.5479 35.3711ZM59.1123 46.4922C58.0659 46.3451 56.9868 46.492 55.875 46.9824C54.8938 47.5221 53.9451 48.2583 53.291 49.3213C52.5925 50.3501 52.2478 51.5783 52.3096 52.8203C52.2769 53.9487 52.6369 54.9793 53.3564 55.9277C54.0632 56.892 54.9521 57.7083 55.9727 58.3311C57.1663 59.0669 58.2621 59.4104 59.3086 59.5576C60.3715 59.7211 61.4349 59.5582 62.5469 59.084C63.6388 58.5196 64.5589 57.6722 65.2119 56.6309C65.9477 55.4372 66.2913 54.3416 66.1279 53.2461C66.1606 52.1177 65.8006 51.0871 65.0811 50.1387C63.6523 48.1813 61.506 46.8701 59.1123 46.4922ZM28.1895 46.54C25.7038 47.4558 24.1008 48.3394 23.2832 49.4023C22.4821 50.4488 22.2531 51.4301 22.6455 52.4766C23.038 53.523 23.7251 54.1604 24.5264 54.3076C25.4258 54.7164 26.4398 54.6351 27.6172 54.21C28.4253 53.9386 29.1688 53.5036 29.8018 52.9326C30.4347 52.3615 30.9431 51.6658 31.2959 50.8896C31.9499 49.467 31.9834 47.5208 31.3457 45.3623L28.1895 46.54ZM43.0703 13.374C45.1621 12.7353 47.3869 12.6675 49.5137 13.1777C51.3778 13.7174 53.0458 14.6008 54.2559 16.0234C55.4922 17.4543 56.3722 19.1577 56.8232 20.9941L60.0117 33.5859L54.4521 34.9932L52.7354 26.4893L52.3262 26.6035C54.125 34.224 48.5323 36.6448 45.1309 37.4951C42.9725 38.0511 40.9448 37.9854 39.3096 37.2334C37.5435 36.5302 36.4642 35.0745 35.9082 32.916C35.5932 31.82 35.5893 30.6573 35.8984 29.5596C36.2075 28.4621 36.8168 27.4727 37.6572 26.7021C39.3743 24.9687 41.9584 23.7578 45.1963 22.9238C46.9623 22.4823 48.8918 22.139 50.8213 21.7793L50.7559 21.5176C50.4457 20.6286 49.8474 19.8689 49.0557 19.3594C48.2054 18.8525 47.4203 18.6074 46.5537 18.542C45.6075 18.4861 44.6582 18.5794 43.7412 18.8193C42.2534 19.1893 40.849 19.8393 39.6035 20.7334C38.3354 21.559 37.2359 22.6188 36.3652 23.8564L35.957 23.9541L34.4854 18.1328C35.5643 16.9776 36.8369 16.0199 38.2461 15.3037C39.7506 14.4861 41.3205 13.8156 43.0703 13.374ZM47.3545 25.1152C44.7709 25.7693 43.0867 26.4891 42.1709 27.4375C41.2551 28.386 40.9115 29.335 41.1895 30.4307C41.4675 31.5096 42.0727 32.229 42.8574 32.458C43.8386 32.9322 44.8526 32.9481 45.9482 32.6865C46.7814 32.5059 47.5687 32.1561 48.2607 31.6582C48.9528 31.1602 49.5356 30.5246 49.9717 29.792C50.7891 28.4347 51.0179 26.5052 50.5928 24.2979L47.3545 25.1152ZM36.1533 1.96191L26.8643 29.501L21.0264 27.5381V27.5059L30.3311 0L36.1533 1.96191ZM12.6865 0.587891C15.3664 0.602159 17.9868 1.37929 20.2412 2.82812V9.25488H19.833C18.6649 8.36891 17.3971 7.62277 16.0557 7.03125C15.0011 6.55946 13.8584 6.31545 12.7031 6.31543C11.5478 6.31543 10.4052 6.55944 9.35059 7.03125C8.36946 7.44008 7.51883 8.14289 6.83203 9.12402C6.13688 10.1484 5.79331 11.3708 5.85156 12.6074C5.78522 13.7848 6.08362 14.954 6.70703 15.9551C7.33048 16.9561 8.24802 17.7404 9.33398 18.2002C10.388 18.674 11.5309 18.9189 12.6865 18.9189C13.8422 18.9189 14.985 18.674 16.0391 18.2002C17.3825 17.6852 18.6189 16.9256 19.6855 15.96H20.1113V22.3867C19.1783 23.065 18.1386 23.5844 17.0361 23.9238C15.7771 24.3489 14.3709 24.4961 12.7031 24.4961C10.1848 24.4961 7.79687 23.9402 5.99805 22.959C4.15171 21.9305 2.60708 20.436 1.51758 18.625C0.521209 16.7522 8.30669e-06 14.6634 0 12.542C0 10.4206 0.521228 8.33179 1.51758 6.45898C2.52433 4.58967 4.08306 3.07579 5.98145 2.125C8.04141 1.02967 10.3551 0.499377 12.6865 0.587891Z" fill="white"/>
</svg>
