<svg width="109" height="36" viewBox="0 0 109 36" fill="none" xmlns="http://www.w3.org/2000/svg">
<path d="M94.8429 22.7586H94.9212L100.03 7.70337H104.672L96.832 28.9602C96.468 29.8702 96.1042 30.7414 95.7401 31.5735C95.4021 32.4055 94.9729 33.1337 94.4528 33.7577C93.9588 34.4076 93.3349 34.9147 92.5809 35.2787C91.8269 35.6687 90.8646 35.8636 89.6946 35.8636C88.6545 35.8636 87.6273 35.7859 86.6133 35.6299V31.8854C86.9772 31.9374 87.3283 31.9896 87.6662 32.0416C88.0042 32.1196 88.3555 32.1584 88.7195 32.1584C89.2395 32.1584 89.6685 32.0933 90.0065 31.9633C90.3445 31.8334 90.6175 31.6384 90.8255 31.3784C91.0595 31.1444 91.2547 30.8582 91.4107 30.5202C91.5667 30.1823 91.7095 29.7923 91.8395 29.3504L92.3468 27.7901L84.7021 7.70337H89.5774L94.8429 22.7586Z" fill="white"/>
<path fill-rule="evenodd" clip-rule="evenodd" d="M47.828 27.8676H43.6154V25.1375H43.5375C42.9395 26.3076 42.0684 27.1524 40.9243 27.6726C39.7802 28.1666 38.5711 28.4139 37.297 28.4139C35.7108 28.4139 34.3198 28.1407 33.1237 27.5947C31.9537 27.0226 30.9786 26.2557 30.1985 25.2936C29.4184 24.3316 28.8331 23.2004 28.4431 21.9004C28.0531 20.5742 27.8582 19.157 27.8582 17.6489C27.8582 15.8287 28.1052 14.2554 28.5992 12.9293C29.0932 11.6032 29.7434 10.5112 30.5493 9.65319C31.3814 8.79511 32.3176 8.17098 33.3577 7.78094C34.4237 7.36493 35.5028 7.15709 36.5949 7.15708C37.2189 7.15708 37.856 7.22182 38.5061 7.35183C39.1562 7.45584 39.7803 7.6381 40.3783 7.89812C40.9763 8.15814 41.5225 8.49614 42.0165 8.91215C42.5365 9.30216 42.9655 9.77034 43.3035 10.3163H43.3814V0.0193116H47.828V27.8676ZM37.9601 10.6672C36.92 10.6672 36.0359 10.8883 35.3079 11.3304C34.6057 11.7464 34.0208 12.3055 33.5528 13.0075C33.1108 13.6835 32.7857 14.4635 32.5777 15.3475C32.3957 16.2056 32.3044 17.0897 32.3044 17.9997C32.3044 18.8578 32.4087 19.703 32.6167 20.5351C32.8507 21.3671 33.1887 22.1082 33.6307 22.7582C34.0987 23.4084 34.6836 23.9286 35.3858 24.3186C36.0878 24.7086 36.9201 24.9035 37.8822 24.9035C38.8702 24.9035 39.7152 24.6954 40.4172 24.2793C41.1452 23.8633 41.7303 23.3174 42.1723 22.6414C42.6403 21.9653 42.9787 21.2111 43.1867 20.379C43.4207 19.521 43.5375 18.65 43.5375 17.766C43.5375 15.5298 43.0306 13.7876 42.0165 12.5395C41.0284 11.2913 39.6762 10.6672 37.9601 10.6672Z" fill="white"/>
<path fill-rule="evenodd" clip-rule="evenodd" d="M59.9315 7.15708C60.9196 7.15708 61.8947 7.26099 62.8567 7.46901C63.8188 7.67703 64.6769 8.01501 65.431 8.48304C66.2111 8.95107 66.8352 9.56228 67.3033 10.3163C67.7713 11.0444 68.005 11.9415 68.005 13.0075V23.3824C68.005 23.9284 68.07 24.3186 68.2001 24.5526C68.3561 24.7866 68.6423 24.9035 69.0583 24.9035H69.5264C69.7084 24.9035 69.9163 24.8775 70.1503 24.8256V27.9069C69.9943 27.9589 69.7863 28.0111 69.5264 28.0631C69.2924 28.141 69.0453 28.2058 68.7854 28.2578C68.5254 28.3098 68.265 28.349 68.005 28.375C67.7452 28.401 67.5242 28.4139 67.3422 28.4139C66.4322 28.4139 65.6778 28.2321 65.0798 27.868C64.4818 27.504 64.0917 26.8668 63.9097 25.9568C63.0257 26.8148 61.9336 27.439 60.6336 27.829C59.3595 28.219 58.1244 28.4139 56.9284 28.4139C56.0184 28.4139 55.1472 28.2839 54.3151 28.0238C53.4831 27.7898 52.7419 27.4389 52.0919 26.9708C51.4678 26.4768 50.9607 25.8655 50.5706 25.1375C50.2066 24.3835 50.0246 23.5126 50.0246 22.5245C50.0246 21.2764 50.2457 20.2623 50.6878 19.4821C51.1558 18.7021 51.7537 18.0909 52.4818 17.6489C53.2358 17.2069 54.0679 16.8951 54.9779 16.7131C55.914 16.505 56.8501 16.3487 57.7862 16.2447C58.5923 16.0887 59.3596 15.9847 60.0876 15.9327C60.8157 15.8547 61.4528 15.738 61.9988 15.5819C62.5707 15.4259 63.0127 15.1917 63.3248 14.8798C63.6628 14.5418 63.8317 14.0478 63.8318 13.3977C63.8318 12.8257 63.689 12.3575 63.403 11.9935C63.1429 11.6294 62.8046 11.3566 62.3886 11.1746C61.9987 10.9666 61.5567 10.8364 61.0627 10.7844C60.5687 10.7064 60.1005 10.6675 59.6585 10.6675C58.4104 10.6675 57.3832 10.9275 56.5771 11.4475C55.7711 11.9677 55.3159 12.7737 55.2119 13.8657H50.7657C50.8437 12.5656 51.1557 11.4864 51.7018 10.6283C52.2478 9.77024 52.9371 9.08131 53.7691 8.56126C54.6272 8.04125 55.5893 7.67702 56.6554 7.46901C57.7214 7.261 58.8135 7.15708 59.9315 7.15708ZM63.5588 17.766C62.8827 18.208 62.0507 18.4809 61.0627 18.585C60.0746 18.663 59.0862 18.7931 58.0982 18.9751C57.6302 19.0531 57.1752 19.17 56.7333 19.326C56.2912 19.456 55.9011 19.6512 55.5631 19.9113C55.2251 20.1453 54.9522 20.4703 54.7442 20.8863C54.5622 21.2763 54.4709 21.7575 54.4709 22.3295C54.4709 22.8235 54.614 23.2395 54.9 23.5775C55.1859 23.9155 55.524 24.1885 55.914 24.3965C56.33 24.5785 56.7723 24.7086 57.2403 24.7866C57.7343 24.8646 58.1763 24.9035 58.5662 24.9035C59.0603 24.9035 59.5935 24.8387 60.1655 24.7087C60.7376 24.5787 61.2707 24.3577 61.7648 24.0456C62.2848 23.7336 62.7138 23.3434 63.0518 22.8754C63.3898 22.3814 63.5588 21.7834 63.5588 21.0814V17.766Z" fill="white"/>
<path d="M23.9304 7.76131L13.7977 28.1305H0V20.3724L10.1379 0H23.9304V7.76131Z" fill="white"/>
<path d="M75.7932 27.8676H71.3469V7.70304H75.7932V27.8676Z" fill="white"/>
<path d="M83.6409 27.8676H79.1943V0.0193116H83.6409V27.8676Z" fill="white"/>
<path d="M107.282 8.28239H106.858V9.43552H106.58V8.28239H106.157V8.04443H107.282V8.28239Z" fill="white"/>
<path d="M107.86 8.04443L108.263 9.03096L108.664 8.04443H109V9.43552H108.722V8.53803L108.338 9.43552H108.187L107.802 8.53803V9.43552H107.524V8.04443H107.86Z" fill="white"/>
<path d="M75.7932 4.23153H71.3469V0.0193116H75.7932V4.23153Z" fill="white"/>
</svg>
