<svg width="296" height="51" viewBox="0 0 296 51" fill="none" xmlns="http://www.w3.org/2000/svg">
<path fill-rule="evenodd" clip-rule="evenodd" d="M25.8617 0.00109815C32.5757 -0.00759003 40.1945 -0.0171441 45.1473 4.93375C50.0772 9.85959 50.0647 17.4462 50.0535 24.1515V25.098L50.0498 25.1018V25.9635C50.059 32.6917 50.0702 40.3174 45.136 45.2793C40.2245 50.2237 32.6596 50.212 25.971 50.2006H25.9654C25.651 50.2002 25.3384 50.1987 25.0282 50.1987L24.1684 50.2006C17.4593 50.2099 9.85417 50.2193 4.90356 45.2699C-0.0223948 40.3412 -0.0101444 32.756 0.00107672 26.0484L0.00296229 25.1018C0.00296229 24.8234 0.00144312 24.5425 0.00107672 24.2608C-0.00768875 17.5269 -0.0167929 9.88918 4.92053 4.91866C9.83183 -0.0224966 17.3959 -0.0102937 24.0817 0.00109815C24.3981 0.00148429 24.7123 0.00298367 25.0245 0.00298372C25.3017 0.00298372 25.5808 0.00148394 25.8617 0.00109815ZM22.3243 32.629C21.6608 32.6529 21.0319 32.9341 20.5708 33.4134C20.1097 33.8928 19.8524 34.533 19.8524 35.199C19.8524 35.8652 20.1096 36.5053 20.5708 36.9847C21.0319 37.4637 21.6608 37.7451 22.3243 37.7691H27.8472C28.1912 37.7811 28.5347 37.7229 28.856 37.5994C29.1772 37.4756 29.4701 37.2884 29.7177 37.0488C29.9654 36.809 30.1638 36.5219 30.2984 36.204C30.4329 35.8862 30.502 35.5443 30.5021 35.199C30.5021 34.854 30.4329 34.5117 30.2984 34.194C30.1638 33.8762 29.9654 33.5891 29.7177 33.3493C29.4701 33.1097 29.1772 32.9225 28.856 32.7987C28.5347 32.6752 28.1913 32.6169 27.8472 32.629H22.3243ZM17.0843 22.0755C16.4044 22.0755 15.7512 22.3457 15.2704 22.8278C14.79 23.31 14.5201 23.9639 14.52 24.6455C14.52 25.3274 14.7896 25.983 15.2704 26.4651C15.7512 26.9474 16.4044 27.2174 17.0843 27.2174H33.0909C33.7706 27.2174 34.4223 26.9469 34.903 26.4651C35.3839 25.9829 35.6553 25.3275 35.6553 24.6455C35.6552 23.9637 35.3838 23.31 34.903 22.8278C34.4223 22.3459 33.7708 22.0755 33.0909 22.0755H17.0843ZM11.8406 11.5295C11.4965 11.5171 11.1533 11.5755 10.8318 11.6992C10.5103 11.8227 10.216 12.01 9.9682 12.2498C9.72063 12.4894 9.52386 12.7769 9.38933 13.0945C9.25479 13.4124 9.18574 13.7542 9.18569 14.0995C9.18569 14.4448 9.25482 14.7868 9.38933 15.1045C9.52381 15.4222 9.72072 15.7096 9.9682 15.9492C10.216 16.1892 10.5103 16.3781 10.8318 16.5017C11.1532 16.6251 11.4967 16.6819 11.8406 16.6695H27.8472C28.1913 16.6818 28.5346 16.6252 28.856 16.5017C29.1774 16.3781 29.47 16.1892 29.7177 15.9492C29.9653 15.7095 30.1639 15.4225 30.2984 15.1045C30.4328 14.7869 30.5021 14.4447 30.5021 14.0995C30.502 13.7543 30.4329 13.4124 30.2984 13.0945C30.1638 12.7767 29.9654 12.4896 29.7177 12.2498C29.4701 12.0102 29.1772 11.8227 28.856 11.6992C28.5347 11.5755 28.1912 11.5172 27.8472 11.5295H11.8406ZM38.2159 11.5276C37.5359 11.5276 36.8828 11.7976 36.402 12.2799C35.9214 12.7619 35.6517 13.4159 35.6516 14.0976C35.6516 14.7798 35.9212 15.4351 36.402 15.9172C36.8828 16.3994 37.536 16.6695 38.2159 16.6695C38.8953 16.6694 39.5474 16.3991 40.028 15.9172C40.5087 15.4351 40.7784 14.7798 40.7784 14.0976C40.7783 13.4159 40.5086 12.7619 40.028 12.2799C39.5473 11.7979 38.8955 11.5277 38.2159 11.5276Z" fill="white"/>
<path d="M174.094 17.997C176.196 17.997 178.109 18.3238 179.788 18.9812C181.332 19.5513 182.689 20.539 183.708 21.8341C184.641 23.0518 185.106 24.5032 185.106 26.0898H178.81C178.789 25.5934 178.656 25.1074 178.421 24.67C178.186 24.2325 177.854 23.854 177.452 23.5632C176.612 22.9093 175.495 22.5827 174.094 22.5827C172.79 22.5828 171.764 22.8605 171.015 23.3784C170.224 23.8933 169.851 24.5935 169.851 25.4356C169.851 26.1379 170.085 26.6532 170.643 27.0289C171.202 27.4048 171.842 27.6446 172.51 27.7284C173.211 27.8708 174.426 28.0101 176.104 28.1979C177.729 28.3929 179.336 28.7205 180.908 29.1784C182.25 29.5573 183.46 30.3031 184.404 31.3317C185.337 32.3615 185.854 33.7187 185.854 35.4932C185.854 38.0677 184.825 40.0801 182.82 41.4855C180.815 42.9365 178.06 43.6388 174.563 43.6388C171.018 43.6388 168.218 42.887 166.212 41.297C164.159 39.7068 163.18 37.5526 163.18 34.7936H169.289C169.289 36.1018 169.758 37.1328 170.736 37.8841C171.714 38.6774 173.071 39.0531 174.75 39.0531C176.055 39.0531 177.082 38.8159 177.876 38.2555C178.667 37.7406 179.087 37.0411 179.087 36.1022C179.087 35.1212 178.621 34.4631 177.782 34.1393C176.894 33.8091 175.541 33.5315 173.724 33.3436C171.993 33.2079 170.276 32.9254 168.592 32.5008C167.226 32.1377 165.984 31.4108 164.998 30.3965C163.974 29.3667 163.457 27.9158 163.457 25.9956C163.457 23.5668 164.392 21.645 166.352 20.1974C168.311 18.7438 170.875 17.9971 174.094 17.997Z" fill="white"/>
<path fill-rule="evenodd" clip-rule="evenodd" d="M147.083 18.0931C149.403 18.0632 151.695 18.6076 153.754 19.6789C155.649 20.7061 157.218 22.2472 158.281 24.1251C159.354 26.0423 159.916 28.242 159.916 30.7227C159.916 31.7967 159.869 32.4995 159.82 32.827H141.068C141.346 34.5593 142.047 35.9167 143.167 36.8979C144.284 37.9277 145.731 38.395 147.409 38.3951C148.62 38.4242 149.815 38.1163 150.862 37.507C151.835 36.9459 152.629 36.1175 153.151 35.1198L159.028 36.617C158.282 38.7706 156.835 40.503 154.688 41.7174C152.54 42.935 150.022 43.5446 147.132 43.5446C144.565 43.5445 142.279 43.0293 140.274 41.9513C138.313 40.9033 136.692 39.3115 135.608 37.3656C134.487 35.4031 133.929 33.1545 133.929 30.6284C133.929 28.1967 134.487 25.9981 135.608 24.0779C136.713 22.1967 138.331 20.67 140.271 19.6789C142.234 18.6494 144.52 18.0932 147.083 18.0931ZM146.896 23.2351C145.311 23.2351 144.007 23.7511 142.98 24.687C141.953 25.6228 141.301 26.934 141.017 28.5241H152.87C152.682 27.0689 151.989 25.726 150.911 24.7341C149.79 23.7529 148.485 23.2351 146.896 23.2351Z" fill="white"/>
<path d="M198.946 18.8398H204.403V23.8932H198.942V34.7936C198.942 35.8235 199.223 36.6663 199.783 37.275C200.341 37.8833 201.137 38.1613 202.117 38.1613C202.951 38.1527 203.779 38.044 204.585 37.8351V42.7922C203.933 43.0285 203.14 43.2136 202.3 43.356C201.514 43.4811 200.72 43.5446 199.922 43.5446C197.496 43.5444 195.584 42.7927 194.187 41.2027C192.742 39.6611 192.043 37.6007 192.043 35.0746V23.8894H188.684V18.8379H192.226L193.583 11.2598H198.995L198.946 18.8398Z" fill="white"/>
<path fill-rule="evenodd" clip-rule="evenodd" d="M220.434 18.0931C223.046 18.0931 225.336 18.6511 227.339 19.6808C229.293 20.6757 230.914 22.2209 232.005 24.127C233.125 26.0441 233.683 28.2911 233.684 30.817C233.684 33.3884 233.125 35.637 232.005 37.5541C230.914 39.4601 229.292 41.0056 227.339 42.0003C225.333 43.0267 223.05 43.5446 220.434 43.5446C217.777 43.5444 215.443 43.0301 213.485 42.0003C211.531 41.0054 209.911 39.4602 208.82 37.5541C207.699 35.637 207.188 33.3884 207.188 30.817C207.188 28.2912 207.699 26.0441 208.82 24.127C209.911 22.221 211.532 20.6758 213.485 19.6808C215.443 18.6512 217.777 18.0933 220.434 18.0931ZM220.434 24.0327C218.569 24.0329 217.029 24.6876 215.867 25.9503C214.652 27.2134 214.091 28.8514 214.091 30.817C214.091 32.8281 214.652 34.4678 215.863 35.7308C217.033 37.0384 218.569 37.6482 220.434 37.6484C222.256 37.6484 223.748 37.039 224.963 35.7308H224.959C226.129 34.4678 226.735 32.8281 226.735 30.817C226.735 28.8517 226.125 27.2133 224.963 25.9503C223.748 24.6874 222.256 24.0327 220.434 24.0327Z" fill="white"/>
<path d="M76.9286 36.1512H92.0885V42.7941H69.1864V9.48174H76.9286V36.1512Z" fill="white"/>
<path d="M103.14 42.7941H96.2349V18.8379H103.14V42.7941Z" fill="white"/>
<path d="M119.352 37.1355H119.818L125.65 18.8379H132.879L124.577 42.7941H114.593L106.287 18.8379H113.565L119.352 37.1355Z" fill="white"/>
<path d="M251.076 18.3722C252.011 18.3795 252.934 18.5874 253.782 18.9812V25.2017C253.129 24.9201 252.475 24.7352 251.732 24.5474C250.987 24.4082 250.377 24.3136 249.864 24.3136C249.159 24.2973 248.459 24.4455 247.82 24.7454C247.181 25.0453 246.619 25.4892 246.179 26.0427C245.245 27.2118 244.778 28.7127 244.778 30.536V42.7941H237.875V18.8379H244.686V22.1151H245.199C245.712 20.9981 246.54 20.0559 247.578 19.4017C248.627 18.7388 249.837 18.3824 251.076 18.3722Z" fill="white"/>
<path d="M271.648 18.0931C273.185 18.0926 274.689 18.5311 275.984 19.3565C277.278 20.1315 278.315 21.2688 278.971 22.6279H279.437C280.128 21.2764 281.179 20.1422 282.473 19.3527C283.778 18.5564 285.272 18.1348 286.951 18.1346C288.675 18.1346 290.216 18.5562 291.614 19.398C292.981 20.2388 294.095 21.4371 294.836 22.8636C295.612 24.4488 296.011 26.194 296 27.9603V42.7941H289.095V29.1332C289.095 27.6825 288.675 26.4689 287.835 25.5298C286.995 24.594 285.924 24.0781 284.617 24.0327C283.991 24.0193 283.374 24.1423 282.801 24.3928C282.229 24.6432 281.717 25.0146 281.304 25.4827C280.464 26.4187 280.046 27.6338 280.046 29.1332V42.7941H273.096V29.1332C273.096 27.5887 272.676 26.3746 271.927 25.4356C271.135 24.4996 270.109 24.0328 268.8 24.0327C267.402 24.0327 266.33 24.4995 265.536 25.4356C264.697 26.3713 264.322 27.634 264.322 29.1332V42.7941H257.417V18.8379H264.277V22.3941H264.745C265.395 21.1119 266.379 20.028 267.59 19.2584C268.8 18.5138 270.154 18.0932 271.648 18.0931Z" fill="white"/>
<path d="M99.6874 7.37745C100.798 7.35505 101.872 7.77533 102.674 8.5465C103.417 9.29428 103.837 10.2747 103.838 11.4465C103.853 11.9912 103.758 12.5351 103.558 13.0417C103.359 13.548 103.057 14.0075 102.674 14.3937C101.883 15.1418 100.901 15.5156 99.6874 15.5156C98.4764 15.5156 97.4498 15.1386 96.7007 14.3937C95.9097 13.6489 95.5374 12.6621 95.5373 11.4446C95.5373 10.2755 95.9096 9.29401 96.7007 8.54273C97.4498 7.79782 98.4731 7.37745 99.6874 7.37745Z" fill="white"/>
</svg>
