<svg width="157" height="38" viewBox="0 0 157 38" fill="none" xmlns="http://www.w3.org/2000/svg">
<path d="M68.31 29.4381C66.7589 29.4381 65.3566 29.1725 64.103 28.6413C62.8707 28.1101 61.8933 27.3452 61.1709 26.3466C60.4485 25.348 60.0767 24.1688 60.0554 22.8089H64.8361C64.8998 23.7226 65.2185 24.445 65.7922 24.9762C66.3871 25.5073 67.1945 25.7729 68.2144 25.7729C69.2555 25.7729 70.0735 25.5286 70.6684 25.0399C71.2634 24.53 71.5608 23.8713 71.5608 23.0639C71.5608 22.4052 71.359 21.8634 70.9553 21.4385C70.5516 21.0136 70.0416 20.6842 69.4255 20.4505C68.8305 20.1955 68.0019 19.9193 66.9395 19.6219C65.4947 19.1969 64.3155 18.7826 63.4019 18.3789C62.5095 17.9539 61.7339 17.3271 61.0753 16.4985C60.4379 15.6486 60.1192 14.5225 60.1192 13.1202C60.1192 11.8029 60.4485 10.6555 61.1072 9.67813C61.7658 8.70076 62.6901 7.9571 63.8799 7.44717C65.0698 6.91599 66.4296 6.6504 67.9594 6.6504C70.2541 6.6504 72.1132 7.21345 73.5368 8.33955C74.9816 9.44441 75.7784 10.9955 75.9271 12.9927H71.019C70.9765 12.2278 70.6472 11.601 70.031 11.1123C69.4361 10.6024 68.6393 10.3474 67.6407 10.3474C66.7696 10.3474 66.0684 10.5705 65.5372 11.0167C65.0273 11.4629 64.7723 12.1109 64.7723 12.9608C64.7723 13.5558 64.9635 14.0551 65.346 14.4588C65.7497 14.8412 66.2384 15.1599 66.8121 15.4149C67.407 15.6486 68.2356 15.9248 69.298 16.2435C70.7428 16.6685 71.922 17.0934 72.8357 17.5184C73.7493 17.9433 74.5354 18.5807 75.1941 19.4306C75.8528 20.2805 76.1821 21.396 76.1821 22.7771C76.1821 23.9669 75.874 25.0718 75.2578 26.0916C74.6417 27.1115 73.7387 27.9295 72.5488 28.5457C71.359 29.1406 69.946 29.4381 68.31 29.4381Z" fill="white"/>
<path d="M84.5124 14.1082C85.086 13.3008 85.8722 12.6315 86.8708 12.1003C87.8907 11.5479 89.0486 11.2717 90.3447 11.2717C91.8533 11.2717 93.2131 11.6435 94.4242 12.3872C95.6565 13.1308 96.6233 14.1932 97.3245 15.5742C98.0469 16.9341 98.4081 18.517 98.4081 20.323C98.4081 22.129 98.0469 23.7332 97.3245 25.1355C96.6233 26.5166 95.6565 27.5896 94.4242 28.3545C93.2131 29.1194 91.8533 29.5018 90.3447 29.5018C89.0486 29.5018 87.9013 29.2362 86.9027 28.7051C85.9253 28.1739 85.1285 27.5046 84.5124 26.6972V37.6289H80.0504V11.5585H84.5124V14.1082ZM93.8505 20.323C93.8505 19.2607 93.6274 18.347 93.1812 17.5821C92.7563 16.796 92.1826 16.201 91.4602 15.7973C90.7591 15.3936 89.9941 15.1918 89.1655 15.1918C88.3581 15.1918 87.5932 15.4043 86.8708 15.8292C86.1696 16.2329 85.596 16.8278 85.1498 17.614C84.7248 18.4001 84.5124 19.3244 84.5124 20.3868C84.5124 21.4491 84.7248 22.3734 85.1498 23.1595C85.596 23.9457 86.1696 24.5512 86.8708 24.9762C87.5932 25.3799 88.3581 25.5817 89.1655 25.5817C89.9941 25.5817 90.7591 25.3692 91.4602 24.9443C92.1826 24.5194 92.7563 23.9138 93.1812 23.1277C93.6274 22.3415 93.8505 21.4066 93.8505 20.323Z" fill="white"/>
<path d="M109.491 29.5018C107.791 29.5018 106.261 29.13 104.901 28.3864C103.541 27.6215 102.468 26.5485 101.682 25.1674C100.917 23.7863 100.535 22.1928 100.535 20.3868C100.535 18.5807 100.928 16.9872 101.714 15.6061C102.522 14.225 103.616 13.1627 104.997 12.419C106.378 11.6541 107.918 11.2717 109.618 11.2717C111.318 11.2717 112.858 11.6541 114.239 12.419C115.621 13.1627 116.704 14.225 117.49 15.6061C118.298 16.9872 118.701 18.5807 118.701 20.3868C118.701 22.1928 118.287 23.7863 117.458 25.1674C116.651 26.5485 115.546 27.6215 114.144 28.3864C112.763 29.13 111.212 29.5018 109.491 29.5018ZM109.491 25.6136C110.298 25.6136 111.052 25.4224 111.754 25.0399C112.476 24.6362 113.05 24.0413 113.475 23.2551C113.899 22.469 114.112 21.5129 114.112 20.3868C114.112 18.7082 113.666 17.4228 112.773 16.5304C111.902 15.6167 110.829 15.1599 109.554 15.1599C108.28 15.1599 107.207 15.6167 106.335 16.5304C105.486 17.4228 105.061 18.7082 105.061 20.3868C105.061 22.0653 105.475 23.3614 106.304 24.275C107.153 25.1674 108.216 25.6136 109.491 25.6136Z" fill="white"/>
<path d="M132.428 29.215L126.436 21.6935V29.215H121.974V5.63053H126.436V19.0482L132.364 11.5585H138.165L130.388 20.4186L138.229 29.215H132.428Z" fill="white"/>
<path d="M157 20.0043C157 20.6417 156.958 21.2154 156.873 21.7253H143.965C144.071 23.0002 144.517 23.9988 145.303 24.7212C146.09 25.4436 147.056 25.8048 148.204 25.8048C149.861 25.8048 151.04 25.093 151.741 23.6695H156.554C156.044 25.3692 155.067 26.7716 153.622 27.8764C152.177 28.96 150.403 29.5018 148.299 29.5018C146.599 29.5018 145.07 29.13 143.71 28.3864C142.371 27.6215 141.32 26.5485 140.555 25.1674C139.811 23.7863 139.439 22.1928 139.439 20.3868C139.439 18.5595 139.811 16.9553 140.555 15.5742C141.298 14.1932 142.339 13.1308 143.678 12.3872C145.017 11.6435 146.557 11.2717 148.299 11.2717C149.978 11.2717 151.476 11.6329 152.793 12.3553C154.132 13.0777 155.162 14.1082 155.885 15.4468C156.628 16.7641 157 18.2833 157 20.0043ZM152.379 18.7295C152.357 17.5821 151.943 16.6685 151.136 15.9886C150.328 15.2874 149.34 14.9368 148.172 14.9368C147.067 14.9368 146.132 15.2768 145.367 15.9567C144.623 16.6154 144.167 17.5396 143.997 18.7295H152.379Z" fill="white"/>
<path d="M0.450715 12.9392C1.14899 11.8092 2.50367 11.2696 3.78669 11.6103C6.79384 12.9332 11.2512 18.9756 11.6613 19.9438C12.0714 20.9119 17.013 28.8205 17.013 28.8205C18.4651 30.3307 20.0091 31.1494 21.6993 31.1494C23.8184 31.1494 25.1074 30.6625 26.0302 30.0706C27.0295 29.4296 27.8086 28.5417 28.8051 27.2996C28.8859 27.1989 28.9691 27.0944 29.0548 26.9868C29.5304 26.3897 30.0835 25.6953 30.7296 25.0079C32.009 23.5038 35.705 20.6556 40.2534 21.2951C41.7166 21.6837 42.6648 23.0984 42.469 24.601C42.2733 26.1035 40.9944 27.2276 39.4805 27.2276C37.8506 27.2276 36.8969 27.6513 36.1578 28.1959C35.3197 28.8134 34.6571 29.64 33.6554 30.8896C33.6061 30.9511 33.5559 31.0137 33.5049 31.0773C32.5047 32.324 31.193 33.9249 29.2822 35.1505C27.2948 36.4252 24.8543 37.1827 21.6993 37.1827C17.8345 37.1827 14.8235 35.244 12.67 33.0042C10.5321 30.7806 9.03232 28.062 8.07668 25.9022C7.48516 24.5653 6.84979 23.4472 6.06667 22.5576L0.75253 16.5204C-0.125001 15.5234 -0.247562 14.0692 0.450715 12.9392Z" fill="white"/>
<path fill-rule="evenodd" clip-rule="evenodd" d="M29.9681 0.184463C31.5312 0.756887 32.3348 2.48932 31.7629 4.05397C31.6058 4.48369 31.4162 5.05788 31.1949 5.72784C30.534 7.72899 29.5908 10.5847 28.3906 12.9974C27.5636 14.6599 26.4929 16.3936 25.0794 17.7432C23.6263 19.1305 21.6933 20.2126 19.2885 20.2126C15.1107 20.2126 11.7146 17.4927 9.38416 14.9539C6.95884 12.3117 5.08972 9.20967 3.9929 7.22302C3.18782 5.7648 3.71616 3.92941 5.17297 3.12356C6.62978 2.31771 8.46341 2.84656 9.26848 4.30477C10.2813 6.13925 11.878 8.75327 13.8227 10.8718C15.8622 13.0937 17.7401 14.1792 19.2885 14.1792C19.7468 14.1792 20.2624 14.0043 20.919 13.3774C21.6152 12.7128 22.3151 11.6749 22.9949 10.3081C23.9863 8.31521 24.6834 6.2032 25.3155 4.28774C25.5836 3.47547 25.84 2.69855 26.1023 1.98104C26.6741 0.416394 28.4049 -0.387961 29.9681 0.184463Z" fill="white"/>
<path fill-rule="evenodd" clip-rule="evenodd" d="M35.7605 5.63998C37.3097 6.24917 38.0722 8.00011 37.4636 9.55081L34.1486 17.9975C33.5399 19.5482 31.7907 20.3114 30.2415 19.7022C28.6923 19.093 27.9298 17.3421 28.5384 15.7914L31.8535 7.34472C32.4621 5.79402 34.2113 5.03078 35.7605 5.63998Z" fill="white"/>
<path d="M22.603 28.6594C24.6004 28.6594 26.2195 27.0386 26.2195 25.0393C26.2195 23.0402 24.6004 21.4194 22.603 21.4194C20.6056 21.4194 18.9864 23.0402 18.9864 25.0393C18.9864 27.0386 20.6056 28.6594 22.603 28.6594Z" fill="white"/>
</svg>
