<svg width="204" height="50" viewBox="0 0 204 50" fill="none" xmlns="http://www.w3.org/2000/svg">
<path fill-rule="evenodd" clip-rule="evenodd" d="M20.6885 0.616273C22.2551 0.0807051 23.9188 -0.108711 25.5654 0.059475C27.2121 0.227533 28.8035 0.749906 30.2303 1.59105L40.9163 7.77837C42.7029 8.79912 44.1871 10.2776 45.215 12.0634C46.243 13.8496 46.7772 15.8787 46.7649 17.9411C46.7762 20.0043 46.2393 22.0331 45.2089 23.8187C44.8447 24.4499 44.4233 25.0422 43.952 25.5898C44.1103 25.4065 44.2656 25.2202 44.4126 25.0269L44.4462 25.0605C45.4422 26.3961 46.1439 27.9293 46.5041 29.5575C46.8642 31.1857 46.874 32.872 46.5346 34.5047C46.2072 36.132 45.534 37.671 44.5606 39.014C43.5875 40.3566 42.3371 41.4731 40.8949 42.2876L30.1891 48.4368C28.4076 49.4596 26.3886 49.9939 24.3359 49.9867C22.2835 49.9793 20.269 49.4306 18.4949 48.3956C16.7206 47.3603 15.2489 45.8739 14.2281 44.0877C13.4155 42.6656 12.9112 41.0927 12.7423 39.4716C12.8676 40.7411 13.1979 41.9833 13.7262 43.148C13.5546 43.1774 13.3819 43.2079 13.206 43.2288C12.72 43.2908 12.23 43.3208 11.7401 43.3204C8.88559 43.3155 6.13005 42.2712 3.98609 40.3808C2.73743 39.2902 1.73779 37.9416 1.05566 36.4283C0.373793 34.9153 0.0250933 33.2727 0.0335885 31.6124L2.8126e-05 19.2347C-0.00447184 17.1758 0.531076 15.1518 1.55296 13.3662C2.5751 11.5806 4.04781 10.0954 5.82276 9.06129C7.59803 8.02721 9.61384 7.48045 11.6668 7.4748C13.4487 7.46992 15.2045 7.8729 16.8016 8.64941C15.7403 8.12953 14.6066 7.7705 13.4364 7.58921C13.4825 7.45065 13.5363 7.31095 13.595 7.16818C14.2466 5.63421 15.2174 4.25681 16.4401 3.1272C17.6629 1.99791 19.1109 1.14152 20.6885 0.616273ZM25.1063 4.66335C24.11 4.56043 23.103 4.67451 22.1545 4.99743C21.196 5.31512 20.3153 5.83349 19.5718 6.51833C18.8283 7.2033 18.2374 8.04013 17.8404 8.97129C17.8114 9.03813 17.7861 9.1012 17.7611 9.16807L17.5186 9.02926L22.8699 12.1077L33.4338 18.118L31.1654 22.1361L20.5878 16.1227L15.2288 13.0199C14.1483 12.3965 12.9226 12.0693 11.676 12.0726C10.4295 12.0759 9.20512 12.409 8.12775 13.0382C7.05052 13.6672 6.15723 14.5702 5.53902 15.6559C4.92064 16.7417 4.59856 17.9722 4.60543 19.2225L4.63899 31.5986C4.63337 32.6031 4.84358 33.5979 5.25528 34.5138C5.66704 35.4298 6.2719 36.2462 7.02636 36.9073C7.78319 37.5769 8.67354 38.0779 9.63797 38.3763C10.6023 38.6744 11.6189 38.7644 12.6203 38.6387H12.6843C12.6797 38.4987 12.6778 38.3581 12.6782 38.2177V19.8525H17.2836V38.2268C17.2784 39.4756 17.6021 40.7033 18.2203 41.7873C18.8386 42.8712 19.73 43.7735 20.806 44.4019C21.8819 45.0301 23.1046 45.3633 24.3496 45.3675C25.5944 45.3717 26.8179 45.0457 27.8979 44.4248L38.6052 38.2802C39.4782 37.7882 40.2354 37.1136 40.8247 36.3017C41.4144 35.4891 41.8237 34.5576 42.0222 33.5726C42.2197 32.6323 42.2259 31.6614 42.0405 30.7184C41.8548 29.7752 41.4799 28.8787 40.9407 28.0839C41.1466 27.965 41.3469 27.8365 41.5448 27.7056C41.3355 27.8434 41.1226 27.9763 40.9041 28.1007L35.5908 31.1959L25.123 37.3405L22.7982 33.3499L33.263 27.1976L38.6128 24.0979C39.691 23.474 40.5865 22.5766 41.2092 21.4954C41.8316 20.4144 42.1595 19.188 42.1595 17.9395C42.1595 16.691 41.8316 15.4634 41.2092 14.3821C40.5865 13.3014 39.6908 12.4034 38.6128 11.7797L27.9284 5.59389C27.0655 5.08379 26.1027 4.76634 25.1063 4.66335Z" fill="white"/>
<path fill-rule="evenodd" clip-rule="evenodd" d="M204 8.82027L203.957 37.6807H199.829L199.256 34.2865C197.472 36.7222 195.026 37.9414 191.92 37.9415C190 37.9679 188.104 37.4833 186.43 36.5381C184.808 35.6012 183.497 34.2066 182.662 32.5276C181.718 30.6247 181.251 28.5195 181.301 26.3952C181.257 24.2922 181.733 22.2111 182.683 20.3361C183.545 18.6547 184.862 17.2498 186.481 16.2829C188.133 15.3189 190.014 14.8236 191.924 14.8505C193.41 14.8168 194.883 15.1277 196.229 15.7581C197.416 16.3227 198.446 17.1779 199.218 18.2446L199.259 8.81569L204 8.82027ZM192.712 18.9082C191.82 18.9082 190.937 19.093 190.12 19.4528C189.304 19.8129 188.57 20.3406 187.967 20.9996C186.765 22.3994 186.164 24.1976 186.167 26.3952C186.167 28.6294 186.766 30.4395 187.967 31.8549C188.572 32.5111 189.306 33.0361 190.123 33.3941C190.938 33.7522 191.821 33.9372 192.712 33.9372C193.603 33.9371 194.484 33.752 195.299 33.3941C196.116 33.0361 196.851 32.5111 197.456 31.8549L197.674 31.5956C198.731 30.2509 199.257 28.5469 199.256 26.4837C199.256 24.2192 198.655 22.3912 197.456 20.9996C196.853 20.3407 196.119 19.8129 195.303 19.4528C194.486 19.093 193.603 18.9083 192.712 18.9082Z" fill="white"/>
<path fill-rule="evenodd" clip-rule="evenodd" d="M167.718 14.8505C169.805 14.8505 171.861 15.3495 173.715 16.3073C175.427 17.2431 176.831 18.6595 177.754 20.3818C178.732 22.2326 179.223 24.3018 179.184 26.3952C179.226 28.5026 178.734 30.5866 177.754 32.4514C176.833 34.1714 175.428 35.5827 173.715 36.5091C171.854 37.4478 169.8 37.9369 167.718 37.937C165.636 37.937 163.583 37.4478 161.723 36.5091C160.009 35.5827 158.605 34.1714 157.682 32.4514C156.701 30.5873 156.21 28.5028 156.254 26.3952C156.212 24.3014 156.704 22.2318 157.682 20.3818C158.607 18.6595 160.011 17.2431 161.723 16.3073C163.577 15.3496 165.633 14.8505 167.718 14.8505ZM167.718 18.8991C166.814 18.8652 165.913 19.0358 165.084 19.3994C164.254 19.7629 163.517 20.3094 162.928 20.9981C161.73 22.398 161.131 24.1974 161.128 26.3952C161.127 28.593 161.725 30.3925 162.928 31.7924C163.517 32.4811 164.254 33.0274 165.084 33.3911C165.913 33.7546 166.814 33.9268 167.718 33.8929C168.626 33.9249 169.529 33.7529 170.362 33.3895C171.194 33.0262 171.934 32.48 172.529 31.7924C173.745 30.3924 174.351 28.5931 174.351 26.3952C174.351 24.1974 173.745 22.398 172.529 20.9981C171.934 20.311 171.194 19.7658 170.362 19.4025C169.529 19.0392 168.626 18.8675 167.718 18.8991Z" fill="white"/>
<path fill-rule="evenodd" clip-rule="evenodd" d="M106.307 14.8505C108.297 14.8097 110.267 15.2639 112.04 16.173C113.666 17.0288 115.02 18.3275 115.947 19.9196C116.931 21.655 117.439 23.6219 117.419 25.6188C117.417 26.2231 117.372 26.8268 117.284 27.4249H100.332V27.6888C100.438 29.6488 101.049 31.1989 102.166 32.3385C103.282 33.478 104.76 34.0505 106.6 34.0562C107.906 34.1015 109.195 33.741 110.289 33.0234C111.291 32.3259 111.995 31.2768 112.264 30.0838H117.008C116.636 32.3103 115.455 34.3193 113.692 35.7235C111.892 37.1934 109.644 37.9278 106.951 37.9278C104.82 37.978 102.713 37.4866 100.825 36.4969C99.1159 35.5741 97.7116 34.1733 96.7806 32.4651C95.8091 30.6161 95.3214 28.549 95.365 26.4593C95.3197 24.3432 95.7972 22.2478 96.7516 20.3605L96.921 20.0249C97.7939 18.4683 99.0694 17.1746 100.616 16.2829C102.353 15.3077 104.317 14.8131 106.307 14.8505ZM106.483 18.6977C105.013 18.6683 103.583 19.1778 102.461 20.1301C101.899 20.603 101.437 21.1835 101.098 21.8371C100.76 22.4908 100.553 23.2053 100.491 23.9392H112.588C112.459 22.4484 111.758 21.0648 110.632 20.0828C109.46 19.134 107.987 18.6423 106.483 18.6977Z" fill="white"/>
<path d="M125.157 15.1189H130.558V19.3186H125.157V31.0784C125.157 31.9603 125.332 32.5821 125.684 32.9517C126.035 33.3213 126.636 33.5024 127.485 33.5024H131.085V37.702H126.518C124.377 37.702 122.817 37.2021 121.841 36.2025C120.863 35.2029 120.374 33.6622 120.367 31.5818V8.81874H125.157V15.1189Z" fill="white"/>
<path d="M137.5 18.3789C139.196 16.0271 141.554 14.8505 144.572 14.8505C147.262 14.8505 149.451 15.6739 151.138 17.3202L151.46 17.6406C152.931 19.3008 153.667 21.8376 153.667 25.2496V37.6761H148.918V25.4967C148.918 23.3553 148.457 21.7263 147.538 20.6091C146.616 19.4919 145.275 18.9309 143.517 18.9281C142.679 18.8893 141.844 19.0468 141.077 19.3872C140.311 19.7276 139.634 20.2422 139.099 20.8898C138.034 22.1945 137.5 23.9792 137.5 26.2442V37.6761H132.753V8.81874H137.5V18.3789Z" fill="white"/>
<path d="M84.4441 14.8413C86.9075 14.8413 88.9141 15.6425 90.4621 17.2439L90.723 17.5643C92.0863 19.1784 92.7686 21.6384 92.7686 24.943V37.6715H88.0335V24.9842C88.0335 23.0243 87.6372 21.5261 86.8437 20.4901C86.0517 19.4544 84.877 18.941 83.3229 18.9494C82.5853 18.9171 81.8494 19.0564 81.175 19.3582C80.5008 19.66 79.9062 20.1162 79.4375 20.6884C78.483 21.853 78.007 23.447 78.0097 25.4708V37.6715H73.2273V24.9842C73.2273 22.991 72.8258 21.4866 72.0222 20.4703C71.2183 19.454 70.0391 18.9467 68.4846 18.9494C67.7469 18.9222 67.0129 19.0718 66.3444 19.3857C65.676 19.6998 65.0919 20.1698 64.6404 20.7556C63.697 21.9594 63.2248 23.5805 63.2248 25.6188V37.6715H58.4684V15.1189H62.5963L63.1241 18.0585C63.885 17.0316 64.8816 16.2036 66.0286 15.6437C67.1754 15.0839 68.4406 14.8083 69.7157 14.8413C71.1756 14.8082 72.6184 15.1596 73.9016 15.8588C75.1291 16.5628 76.1003 17.6423 76.6703 18.9403C77.4296 17.6786 78.5044 16.6377 79.7884 15.9213C81.2224 15.1674 82.8259 14.7951 84.4441 14.8413Z" fill="white"/>
</svg>
