<svg width="21" height="20" viewBox="0 0 21 20" fill="none" xmlns="http://www.w3.org/2000/svg">
<g clip-path="url(#clip0_311_1316)">
<path d="M17.455 3.65305C19.7008 6.98777 20.8237 10.7308 20.4154 15.0523C20.4154 15.0523 20.4154 15.0864 20.3814 15.0864C18.8841 16.2093 17.1828 17.06 15.3793 17.6044C15.3453 17.6384 15.3453 17.6044 15.3112 17.6044C14.9369 17.06 14.5966 16.5155 14.2904 15.937C14.2904 15.903 14.2904 15.903 14.2904 15.869L14.3244 15.835C14.8689 15.6308 15.3793 15.3926 15.8897 15.0864C15.8897 15.0864 15.9237 15.0864 15.9237 15.0523C15.9237 15.0183 15.9237 15.0183 15.8897 14.9843C15.7876 14.9162 15.6855 14.8482 15.5835 14.7461C15.5494 14.7461 15.5494 14.7461 15.5154 14.7461C12.2828 16.2433 8.74388 16.2433 5.47722 14.7461C5.44319 14.7461 5.40917 14.7461 5.40917 14.7461C5.30708 14.8482 5.205 14.9162 5.10292 14.9843C5.06889 15.0183 5.06889 15.0183 5.06889 15.0523C5.06889 15.0864 5.06889 15.0864 5.10292 15.0864C5.5793 15.3926 6.12375 15.6308 6.66819 15.835C6.66819 15.835 6.66819 15.869 6.70222 15.869C6.70222 15.903 6.70222 15.903 6.70222 15.937C6.39597 16.5155 6.05569 17.06 5.68139 17.6044C5.64736 17.6044 5.61333 17.6384 5.61333 17.6044C3.80986 17.06 2.10848 16.2093 0.611259 15.0864C0.577231 15.0864 0.577231 15.0523 0.577231 15.0523C0.236954 11.3093 0.951536 7.53221 3.53764 3.65305C3.53764 3.65305 3.53764 3.65305 3.57167 3.65305C4.86472 3.04056 6.22583 2.63222 7.62097 2.39403C7.655 2.36 7.68902 2.39403 7.68902 2.39403C7.89319 2.73431 8.06333 3.10861 8.19944 3.44889C9.73069 3.21069 11.2619 3.21069 12.7932 3.44889C12.9293 3.10861 13.0994 2.73431 13.3036 2.39403C13.3036 2.39403 13.3376 2.36 13.3717 2.39403C14.7668 2.63222 16.1279 3.04056 17.4209 3.65305C17.455 3.65305 17.455 3.65305 17.455 3.65305ZM7.17861 12.7725C8.16541 12.7725 8.98208 11.8537 8.98208 10.7648C8.98208 9.64192 8.19944 8.75721 7.17861 8.75721C6.1918 8.75721 5.37514 9.64192 5.37514 10.7648C5.37514 11.8537 6.1918 12.7725 7.17861 12.7725ZM13.814 12.7725C14.8348 12.7725 15.6175 11.8537 15.6175 10.7648C15.6515 9.64192 14.8348 8.75721 13.814 8.75721C12.8272 8.75721 12.0446 9.64192 12.0446 10.7648C12.0446 11.8537 12.8272 12.7725 13.814 12.7725Z" fill="white"/>
</g>
<defs>
<clipPath id="clip0_311_1316">
<rect width="20" height="20" fill="white" transform="translate(0.5)"/>
</clipPath>
</defs>
</svg>
