<svg preserveAspectRatio="none" width="100%" height="100%" overflow="visible" style="display: block;" viewBox="0 0 185 38" fill="none" xmlns="http://www.w3.org/2000/svg">
<g id="Vector 449-purple" style="mix-blend-mode:multiply">
<path d="M14.3145 37.6965C14.429 37.6483 14.8894 37.7655 15.0887 37.7452C14.8628 38.255 13.9016 37.8715 14.3145 37.6965ZM34.7593 0.680819C34.5939 0.806841 34.4285 0.932863 34.2631 1.05889C34.7331 1.14077 35.3648 1.04827 35.8009 1.1679C35.8722 1.18799 35.6872 1.55287 35.8559 1.56916C36.0248 1.58535 35.9922 1.08671 36.2377 1.03337C36.5131 0.97506 37.7742 1.32245 38.2109 1.31402C39.8443 1.28036 41.4917 0.995594 43.1284 1.20269C41.4387 1.5716 43.1414 1.94706 43.6146 1.78718C43.7195 1.75017 43.7028 0.823154 45.398 1.05657C46.4753 1.20469 45.4803 2.52998 47.278 1.86604C45.8956 0.938908 47.2551 1.00389 48.3387 0.973066C48.5256 0.967606 50.0343 1.1069 50.7008 1.06584C50.9288 1.05156 51.2762 0.565992 51.5787 0.553251C51.7869 0.544846 51.9443 0.810308 52.2534 0.796791C53.6943 0.736956 55.1113 0.716314 56.5547 0.806068C55.7112 2.05387 57.2168 1.33787 57.2845 1.39752C57.6283 1.73631 56.073 1.83274 56.6881 2.04464C57.5477 2.00598 58.4073 1.96733 59.2668 1.92867C58.5614 1.77546 60.2008 0.877901 60.5025 1.28619C60.3697 0.183584 64.4202 2.24585 65.0368 1.87764C65.1652 1.79987 64.3246 1.25492 66.2746 1.50422C66.4858 1.53191 66.4059 1.86458 66.5167 1.83357C66.583 1.81493 66.9845 0.75758 67.4123 1.34185C67.5685 1.55511 66.5691 2.24955 68.7637 1.97042C67.8897 0.894251 71.8067 1.38761 72.5273 1.6573C72.3833 1.51272 72.2394 1.36814 72.0954 1.22356C72.8078 1.61358 72.9364 1.24769 73.0968 1.26763C73.7436 1.34772 74.6327 1.71646 75.2352 1.68281C75.9402 1.64409 75.9426 0.974823 76.7645 1.23516C76.5695 1.08749 76.3744 0.939821 76.1794 0.792152C76.7471 0.827717 77.3147 0.863281 77.8823 0.898846C76.5678 1.78478 78.1659 0.941113 78.2712 0.922039C78.4391 0.889795 78.1978 1.25249 78.4787 1.20733C78.5077 1.1999 78.4657 0.858345 78.8986 0.819984C79.803 0.741003 79.66 1.17043 80.0397 1.16558C80.0745 1.16336 79.9527 0.855667 80.6085 0.782873C82.6929 0.55114 80.5982 1.01867 80.5182 1.0612C80.4132 1.1173 81.1279 2.40318 79.3573 1.94723C79.9518 2.09238 80.0116 2.6614 80.0785 2.67552C80.1378 2.68714 81.1678 2.60699 81.2246 2.58739C81.731 2.39416 81.2854 2.00531 81.3841 1.93563C81.4648 1.87945 82.7058 2.3862 82.9967 1.21661C83.5905 2.29542 82.6551 2.19658 81.6593 2.3624C81.5141 2.58378 82.6075 2.79904 82.665 2.79845C84.0754 2.79648 83.2945 1.9091 83.6029 1.34185C83.7649 1.04506 84.3395 1.65047 83.809 0.854776C85.0891 0.770786 84.3128 1.23187 84.3954 1.30011C84.5202 1.40036 84.9681 1.17231 85.0242 1.20269C85.1065 1.24766 84.8204 1.52315 85.1449 1.62019C85.1988 1.6343 85.7217 1.16023 85.0475 0.933636C85.9482 1.00103 85.874 0.596792 86.1795 1.41144C86.7999 -0.129772 86.6296 2.32243 86.8739 2.40879C87.5235 2.63643 87.335 1.42638 87.3693 1.36737C87.6057 0.989235 89.4039 1.40491 89.8492 1.23052C89.6735 2.10207 88.4237 1.24004 88.1442 1.40912C87.2125 1.97164 89.4575 1.84486 88.7808 2.93994C89.0645 2.63919 89.3482 2.33843 89.6319 2.03768C90.152 2.74177 89.4141 3.04879 90.814 2.79149C91.0429 2.18377 89.8242 2.88748 90.0687 2.40879C90.2128 2.12785 91.0245 2.06751 91.0405 1.91939C91.0565 1.7411 90.3229 1.9524 90.4385 1.67817C90.691 1.08639 93.3668 1.64976 91.3298 1.97274C91.898 1.96262 92.1907 3.13969 92.6834 2.77294C93.002 2.53488 91.2096 0.90922 93.8987 1.20733C93.9559 1.76315 92.8235 1.37146 92.7942 1.41376C92.7529 1.47533 92.9578 2.72959 92.9932 2.79149C93.1186 2.99532 95.8646 2.3237 96.4449 2.95386C96.2152 2.22894 98.5199 2.8245 98.771 2.60362C98.8378 2.54264 98.588 2.0986 98.6594 2.0516C99.1051 1.77187 100.311 2.56453 100.87 2.58507C101.496 2.60834 101.416 2.22483 101.451 2.22556C101.727 2.24695 101.507 2.50694 101.675 2.50621C101.929 2.50496 103.677 2.55813 103.765 2.50389C103.79 2.48698 103.505 2.04888 103.886 1.96578C103.952 1.95138 103.91 2.47079 105.038 2.24643C106.397 1.97658 104.095 1.60051 104.659 1.05657C105.532 1.83105 105.504 1.06357 105.741 1.12383C105.823 1.14578 106.433 1.79831 107.095 1.75703C106.62 1.86295 106.144 1.96887 105.669 2.07479C106.136 2.18921 107.044 2.04759 107.429 2.17685C107.617 2.23977 107.462 2.77582 107.87 2.76134C107.956 2.75535 108.3 1.44936 107.231 2.03536C107.146 1.56903 107.654 1.8727 107.89 1.7408C107.926 1.72024 108.067 0.941183 108.368 1.42535C108.44 1.54448 107.653 3.81705 109.684 2.17221C109.75 2.1192 109.522 1.83459 109.586 1.77559C109.63 1.73563 110.148 1.85076 110.206 1.81038C110.264 1.76705 110.014 1.45634 110.084 1.3952C110.441 1.08016 110.911 2.31249 110.173 2.2186C110.42 2.37091 110.666 2.52321 110.913 2.67552C110.649 1.74675 111.3 2.4142 111.641 2.3856C113.827 2.20279 112.363 1.59873 112.739 1.28619C113.344 0.784374 112.882 2.37378 113.78 1.8962C113.863 1.85155 112.778 1.17687 114.896 1.55756C114.583 1.58385 114.271 1.61013 113.958 1.63642C114.138 2.53475 115.087 1.5748 115.16 1.5622C115.992 1.43885 115.429 1.7627 116.664 1.30011C116.775 1.25857 117.015 1.48028 117.251 1.36969C118.229 0.914082 115.961 1.09322 115.899 0.729527C115.869 0.551321 118.308 0.596201 118.392 0.680819C118.748 1.05592 117.286 0.846029 117.565 1.3117C117.667 1.47705 121.143 1.13745 121.84 1.31866C122.645 1.52953 123.007 2.7475 123.012 1.37897C123.24 2.7223 123.44 1.80577 123.543 1.81502C124.788 1.93937 124.79 1.95293 125.857 1.8243C126.093 1.79634 126.292 2.20392 126.375 2.1351C126.424 2.09353 126.333 1.65735 126.571 1.52277C126.901 1.33866 128.885 1.78729 129.032 2.0284C129.18 2.26952 128.194 2.13297 128.371 2.5294C129.084 2.56948 129.768 2.47139 130.486 2.51316C130.784 2.53171 130.631 2.80917 130.76 2.81469C130.815 2.8181 131.844 2.57376 131.801 2.47141C131.699 2.23343 128.519 2.3934 129.356 1.90779C129.518 1.81396 130.088 2.45336 129.998 1.67585C132.838 1.85213 135.679 2.0284 138.52 2.20468C136.888 2.78622 135.051 2.26613 133.341 2.32065C133.107 2.32738 132.315 2.25239 132.411 2.64537C133.865 2.74711 135.672 2.54235 137.068 2.79845C137.113 2.80693 136.949 3.16 137.116 3.21595C137.429 3.32038 138.448 2.75094 138.619 2.89819C138.648 2.93249 138.068 3.39795 138.245 3.69375C138.697 4.45285 138.812 2.77158 139.201 2.79149C139.502 2.80762 141.523 3.62054 142.027 3.10694C142.562 2.5595 140.537 2.78912 140.687 2.34153C142.057 1.89172 143.444 2.37205 144.739 2.31601C144.762 2.31458 144.564 1.96383 144.852 1.91475C145.355 1.82935 145.487 2.32688 145.732 2.40647C145.996 2.4912 146.929 2.4199 147.054 2.6013C147.069 2.62509 146.88 3.11858 146.852 3.13245C146.445 3.33584 146.301 2.69534 146.264 2.68712C146.125 2.66283 145.988 2.90816 145.862 2.89355C145.653 2.86918 145.538 2.64221 145.262 2.62218C145.072 2.60751 145.256 3.04337 145.073 3.02344C145.005 3.01436 144.28 2.01911 144.212 3.03503C144.191 3.35535 150.123 3.7667 150.716 3.51052C150.208 3.38836 149.699 3.2662 149.19 3.14405C150.223 3.4414 151.464 2.62967 151.552 3.8306C155.382 3.92879 159.212 4.02697 163.042 4.12516C163.726 4.22748 163.351 4.99921 164.476 4.7746C164.185 4.52874 163.894 4.28288 163.603 4.03703C164.18 4.2095 166.735 4.54645 167.149 4.38726C167.202 4.36639 167.277 3.66794 167.915 3.60793C168.482 3.55495 168.573 4.07826 168.876 4.17851C169.13 4.26122 169.416 4.12411 169.491 4.153C169.549 4.17613 169.572 4.49614 169.711 4.55194C170.151 4.72447 169.795 3.82344 170.232 4.8581C170.125 4.89753 170.019 4.93696 169.913 4.97639C170.444 5.12614 171.169 5.59587 170.387 5.82762C170.252 5.86763 170.368 5.55804 170.268 5.55857C166.34 5.6161 169.476 6.21793 170.853 5.73716C171.206 6.1959 173.187 5.91582 173.253 6.00622C173.344 6.13715 173.005 6.50378 173.45 6.82033C173.543 6.88735 176.192 6.63048 175.238 7.24015C175.041 7.36592 173.771 7.23378 173.465 7.25175C174.185 8.22403 175.874 6.83102 176.064 6.86672C176.829 7.01825 174.592 7.70935 176.318 7.82233C177.644 7.90902 176.399 7.25981 176.909 6.98269C177.196 6.8272 178.697 7.5424 178.656 6.61623C179.172 6.51732 178.87 7.00773 178.934 7.043C178.996 7.07401 180.009 6.79675 180.338 6.99197C180.378 7.01625 180.252 7.49765 180.294 7.53704C180.374 7.60448 181.351 7.50824 181.39 7.46745C181.415 7.43912 181.182 7.01765 181.278 6.91543C181.39 6.79757 182.33 6.89675 182.382 6.77627C182.455 6.5941 181.294 6.71411 181.488 6.2428C182.023 6.36147 182.895 6.047 183.248 5.66758C183.161 5.77607 182.643 5.79164 182.462 5.7534C182.547 5.06313 183.661 5.07253 183.28 5.61887C183.522 5.32546 183.357 5.1698 183.493 4.89289C183.529 4.82275 183.873 4.8083 183.939 4.68878C183.948 4.66497 183.593 4.40453 183.664 4.26433C183.793 4.01098 184.836 4.06797 184.921 4.13444C185.161 4.3228 184.311 4.55071 184.24 4.84187C184.23 4.88658 184.953 5.45715 184.964 5.50754C185.006 6.04819 184.202 5.65857 184.294 6.14538C184.493 6.24821 184.692 6.35104 184.891 6.45387C184.123 6.94684 182.703 6.69334 182.337 7.25407C183.475 7.08721 184.666 7.10694 184.664 8.36971C184.663 8.90152 184.172 9.21328 184.191 9.34851C184.263 9.83234 184.945 9.30672 184.97 9.33227C184.991 9.36176 185 9.39047 185 9.41841C185 9.41842 185 9.41843 185 9.41844C185 9.70173 184.028 9.90571 183.98 10.0351C183.898 10.2648 184.33 11.2106 184.33 11.4198C184.315 11.4618 183.623 11.6856 183.856 12.0506C184.092 12.4194 184.698 12.4275 184.719 12.4658C184.835 12.6864 183.776 12.8876 183.744 13.0178C183.727 13.0837 184.296 13.4883 184.313 13.6046C184.327 13.7214 183.895 13.9761 183.724 14.3445C183.597 14.6183 183.967 14.8281 183.902 14.8711C183.856 14.8995 182.855 14.8948 182.805 14.943C182.732 15.0141 182.967 15.3413 182.932 15.4231C182.884 15.5407 182.561 15.4226 182.603 15.5437C182.634 15.6339 183.888 16.7617 183.879 17.0629C183.865 17.5767 182.538 16.3945 183.773 18.4221C183.782 18.4354 184.082 18.2913 184.09 18.3038C184.276 18.6769 183.312 19.2507 184.491 19.1504C182.299 19.7983 184.218 19.9228 183.894 20.7879C183.768 21.1204 182.919 21.2576 182.915 21.3075C182.997 21.7293 183.268 21.4021 183.36 21.609C183.411 21.7246 182.651 22.1706 182.822 22.4602C182.91 22.6095 183.717 22.5563 183.75 22.5855C184.07 22.8601 183.678 23.1558 183.748 23.3509C183.795 23.4816 184.282 23.492 184.294 23.5155C184.315 23.5645 183.654 24.0929 183.516 24.2786C183.411 24.4215 183.804 24.6454 183.731 24.7077C183.291 25.0803 182.355 24.1301 183.257 25.4615C183.312 25.5432 183.653 25.5102 183.664 25.5265C183.874 25.9039 183.246 25.9365 183.134 26.2455C182.94 26.7779 183.844 26.4811 183.093 26.8555C183.656 27.2037 183.97 27.1892 184.63 27.0921C182.804 27.3629 182.159 28.7411 184.186 28.7064C183.542 28.6849 183.613 29.4628 183.421 29.4765C183.301 29.4841 182.366 28.7107 182.795 30.446C182.849 30.6628 183.417 30.3873 183.239 30.831C181.875 30.7178 183.21 31.1133 183.211 31.172C183.194 32.1942 179.862 31.3569 179.29 31.4735C178.626 31.6087 178.036 32.4142 177.891 32.4152C177.416 32.4155 177.811 32.0066 177.704 31.8562C177.597 31.7072 176.246 32.4907 176.179 32.4476C175.917 32.2748 176.183 31.7902 176.155 31.7657C175.831 31.4688 174.017 31.8482 173.51 31.7356C173.525 32.05 174.545 32.0749 173.908 32.5799C173.167 33.1686 173.125 31.7827 173.105 31.7217C169.709 31.7348 166.312 31.748 162.916 31.7611C162.958 32.4984 165.179 31.9424 165.229 32.0394C165.526 32.6142 161.775 32.6036 161.315 32.3433C161.664 32.5025 162.014 32.6618 162.363 32.8211C161.767 33.6688 160.446 32.5674 159.582 32.9417C159.303 33.063 159.839 33.3902 159.828 33.4125C159.514 33.7418 159.011 33.4881 159.387 33.0461C158.622 33.4696 158.734 33.0023 158.147 32.9672C158.117 32.9657 158.369 33.3078 157.904 33.4496C157.686 33.5158 156.525 33.5169 156.37 33.8161C156.306 33.9421 156.895 35.2686 156.968 34.1269C158.23 34.6835 157.371 33.6066 157.862 33.6329C157.937 33.6389 157.764 34.2761 158.999 33.9761C158.764 35.1254 157.341 34.266 157.097 34.4052C156.594 34.6914 158.667 35.2848 159.047 34.389C158.87 35.2858 159.194 34.5099 159.656 34.5467C160.162 34.5867 159.942 34.8538 160.215 34.8552C160.964 34.8619 160.653 34.2289 161.27 34.7995C160.669 33.0328 162.326 34.5664 162.809 35.0292C162.024 35.1189 161.238 35.2085 160.452 35.2982C160.497 35.391 160.541 35.4838 160.586 35.5766C160.379 35.5634 160.172 35.5503 159.965 35.5371C159.999 35.4482 160.032 35.3593 160.065 35.2704C158.997 35.8485 158.737 35.1988 158.65 35.1915C157.529 35.1162 156.235 35.1217 155.102 35.1196C154.932 35.1193 155.049 35.6976 153.81 35.2449C153.415 35.1007 153.788 34.6509 153.34 34.7184C152.78 35.9408 152.79 34.9658 152.624 34.9642C152.146 34.9644 151.854 35.2672 151.809 35.2704C151.219 35.3176 150.354 35.2671 149.705 35.3121C149.693 35.3167 150.03 35.6923 149.609 35.5812C149.461 35.5415 148.134 33.9383 146.973 34.4609C147.275 34.5691 147.577 34.6774 147.879 34.7856C147.524 34.6344 145.037 35.0384 145.645 35.4675C146.018 35.7298 146.928 34.6965 147.027 35.6902C146.2 35.3928 141.63 35.8376 141.274 35.6067C141.224 35.5738 141.527 35.2513 141.459 35.2101C141.407 35.1787 140.36 35.2551 140.221 35.1312C140.138 35.0577 140.601 34.86 140.563 34.7439C140.53 34.6611 139.223 34.523 139.148 34.9271C139.469 34.7649 140.371 34.9066 139.898 35.2472C139.837 35.2895 139.522 35.0288 139.448 35.0825C138.762 35.5777 140.812 35.4588 141.13 35.4629C139.842 35.9778 137.849 35.3708 136.357 35.7064C135.754 35.3701 137.251 35.1919 136.569 34.9132C135.153 34.3355 136.192 35.3783 136.148 35.4212C135.796 35.7605 134.599 33.9418 134.598 35.3261C134.085 35.1177 134.251 34.9432 133.527 35.1243C133.622 35.2201 133.718 35.316 133.813 35.4119C133.009 36.2137 131.307 34.1908 131.435 34.0365C131.777 33.6235 132.664 34.2677 132.739 34.2522C132.851 34.2292 133.161 32.8246 134.387 34.0805C134.889 33.1384 132.444 33.4447 133.557 32.8025C132.805 32.9079 129.714 32.2522 129.269 32.6657C129.216 32.7197 129.463 33.6584 128.699 33.1806C128.337 32.9531 129.211 32.9422 129.045 32.7283C128.534 32.072 121.591 32.4918 120.272 32.5265C120.187 32.5276 120.218 32.2362 120.134 32.2389C119.875 32.247 118.934 32.6815 118.471 32.5474C119.429 33.0866 117.568 33.1286 117.095 33.0693C116.376 32.9789 116.421 32.4662 116.111 32.3572C114.914 31.9369 113.06 33.1541 112.131 32.0162C112.182 33.1456 110.523 31.4625 109.769 31.4526C109.178 31.4445 108.321 32.1919 109.118 32.6471C108.098 32.5951 107.024 32.8058 106.067 32.8744C105.909 32.8859 106.127 32.552 105.857 32.5822C105.833 32.5873 105.799 32.9146 105.567 32.9486C103.654 33.2339 104.585 32.5384 104.227 32.334C104.027 32.2195 103.879 32.1626 103.77 32.1438C104.885 32.0798 106.172 31.9513 106.516 31.942C106.222 31.2193 104.044 32.0808 103.406 31.8863C103.384 31.8793 103.461 31.481 103.439 31.4781C103.438 31.4781 103.438 31.4781 103.437 31.4781C103.198 31.4476 101.676 31.5946 101.989 32.0696C102.073 32.1965 102.774 32.1962 103.605 32.1531C103.38 32.2422 103.548 32.6884 103.508 32.7074C103.027 32.928 101.848 32.4925 101.429 32.4337C101.334 32.4208 101.341 32.7067 101.325 32.7074C100.944 32.6425 101.101 31.8262 100.71 32.668C100.021 31.6506 102.002 32.517 101.862 31.8562C101.755 31.3475 97.3563 31.6207 97.3694 32.4221C97.3542 32.3364 97.2937 32.23 97.1697 32.109C96.8946 31.8401 95.6703 31.9242 95.459 32.0719C95.4234 32.101 95.4376 32.8788 95.3934 32.886C95.2828 32.9039 93.7864 32.294 93.2275 32.7538C93.5293 32.8628 93.8311 32.9718 94.133 33.0809C92.3103 33.0876 92.592 33.3191 93.1993 33.5517C93.2297 33.5538 93.2592 33.5833 93.2882 33.5865C93.7589 33.7585 94.3624 33.9241 94.3715 33.9854C94.406 34.2196 91.3138 34.3499 91.9085 33.6282C91.9914 33.5296 93.4221 33.8509 92.7138 33.336C92.5898 33.2458 91.6709 33.3927 91.6227 33.336C91.2998 32.9586 93.3062 32.4573 93.061 31.9211C92.574 32.4316 91.949 32.1628 91.3905 32.2946C91.1364 32.3541 91.074 32.7441 91.0426 32.7515C90.574 32.8533 90.837 32.4444 90.6806 32.4546C90.5966 32.4616 89.6733 33.3319 89.8478 32.1322C86.8055 33.0148 89.0062 33.0139 90.8725 32.9463C90.2829 33.3833 89.1267 33.1719 88.6079 33.2734C88.4217 33.3102 88.532 33.7105 88.2176 33.7906C87.5704 33.9553 84.4806 33.4954 83.6756 33.387C84.17 33.2456 84.0254 32.8095 83.6438 32.8396C83.2622 32.87 83.5828 33.452 83.5083 33.5146C83.4285 33.5794 81.6382 33.3046 81.3404 33.3801C82.6882 33.1692 82.3841 32.7344 81.2402 32.6889C81.4055 32.5636 81.5709 32.4384 81.7363 32.3131C81.0658 32.4891 79.656 31.8258 79.2684 32.0232C79.2076 32.0549 79.426 32.4206 79.3919 32.4384C79.0519 32.5937 77.8952 32.2208 77.8414 32.3456C77.7958 32.4495 78.2891 32.756 78.106 32.9069C78.0678 32.9387 77.5922 32.4444 77.1237 32.5659C76.9499 32.6106 77.0545 32.9564 77.0108 32.9765C76.6458 33.1428 76.8612 32.5605 76.1942 32.6541C75.7056 32.7233 75.3417 33.2926 74.6664 33.104C76.8836 33.8297 75.0197 33.5266 74.0926 33.7465C73.944 33.7816 74.0714 34.4093 73.1836 34.1037C75.0729 32.9686 72.645 33.5038 72.1483 33.4914C72.1211 33.4875 72.1118 33.0736 71.8682 33.0669C71.8476 33.0673 71.8772 33.3471 71.6508 33.3685C69.5038 33.5707 70.8766 33.2547 70.4687 32.9788C70.295 32.8612 69.251 33.2568 68.9698 33.2664C68.9051 33.2674 68.9349 32.9767 68.6847 32.9881C68.2421 33.0089 67.8455 33.3184 67.5534 33.3429C67.5193 33.3444 67.5179 32.8857 66.9641 33.0345C66.8084 33.076 66.6336 33.2389 66.8547 33.3708C67.5881 33.8045 68.9792 33.0539 69.8082 33.4868C70.564 33.881 68.1806 33.9182 68.0566 33.9205C68.0111 33.9219 68.4766 33.6942 68.0036 33.6491C67.5998 33.6116 66.8617 34.4038 66.2598 34.2313C66.2139 34.2185 65.7331 33.5468 65.7552 33.5076C65.7753 33.479 66.5139 33.3332 66.4066 33.1388C66.3938 33.1167 65.9245 33.1212 65.8632 32.9765C65.7882 32.8003 65.5859 31.0715 65.4856 31.0282C65.2284 30.9211 65.3958 31.3154 65.2295 31.2879C64.8727 31.2301 63.6353 30.7189 63.595 31.3181C63.7994 31.3537 64.0039 31.3892 64.2083 31.4248C63.0709 31.4864 63.5557 31.7415 63.3946 31.8539C63.2211 31.9755 63.2699 31.4487 62.8865 31.3993C62.8031 31.3884 61.1988 31.4983 61.228 31.7193C62.1152 31.3676 61.7863 32.0185 61.8272 32.0302C61.9826 32.0726 62.1811 31.7074 62.3896 31.7147C63.8564 31.7719 62.3772 32.3482 62.7234 32.4964C62.8426 32.5462 63.0801 32.2345 63.1306 32.2505C63.295 32.3021 63.2977 32.7103 63.4073 32.6773C63.6631 32.6007 63.3645 32.0231 63.3847 31.993C63.6133 31.6316 64.509 32.0813 63.9514 32.7097C64.2861 32.9362 64.3254 32.1725 64.5908 32.4778C65.1185 33.0824 64.3279 32.9271 64.1137 33.0275C63.3453 33.3896 63.1174 33.0965 62.0297 33.1968C61.638 33.2322 61.1741 33.6032 60.9923 33.6236C60.8778 33.6364 59.7969 32.3456 59.7651 34.3658C59.3449 34.1703 58.6856 32.8391 58.2527 32.8999C57.8641 32.9555 57.9876 33.6702 57.9514 33.6978C57.8958 33.7413 57.4258 33.6849 57.2668 33.786C57.0805 33.9053 57.1735 34.1781 56.878 34.2893C56.1425 34.5652 56.1617 33.8357 56.0861 33.7883C55.2085 33.2403 55.5928 34.2779 55.3981 34.3612C55.217 34.4377 52.6766 34.0383 52.1419 34.3009C52.3595 34.1547 52.5771 34.0086 52.7947 33.8625C52.4053 33.4075 51.9925 34.1497 51.9852 33.3337C51.9062 34.6511 51.1024 33.7705 50.861 33.8045C50.7658 33.8185 50.7733 34.043 50.6542 34.0527C50.189 34.0921 49.1401 33.9134 48.8878 34.0272C47.7965 34.5173 50.5869 35.3325 50.8066 35.3817C50.3669 35.3672 47.879 35.6622 49.0226 36.2956C49.1994 36.3933 49.5126 35.8037 49.6119 35.7807C50.2839 35.6289 49.7554 36.1572 49.8081 36.2074C49.8976 36.2885 50.3399 35.7778 50.4566 35.8386C50.4956 35.8581 50.2448 36.3365 50.8857 36.3466C50.5705 36.8104 48.7692 36.4325 48.5328 36.5414C48.4486 36.5803 48.9763 37.5713 47.4347 36.6087C47.4526 36.7007 47.4705 36.7927 47.4883 36.8847C46.63 36.9226 45.7716 36.9605 44.9132 36.9984C45.0064 36.7864 45.4884 36.3606 44.8814 36.451C44.5319 36.5033 44.7905 36.9754 44.7586 36.9891C44.445 37.119 38.8943 36.9619 37.8186 37.0146C37.4526 37.0317 36.4327 37.4111 36.3549 37.4182C35.8898 37.4562 34.243 37.2092 33.9145 37.2628C33.7094 37.2971 33.9044 37.6918 33.7211 37.6733C33.5508 37.6556 33.7273 37.2741 33.6767 37.2581C33.2576 37.1199 30.0741 37.6202 29.3181 37.2605C29.7802 37.3685 32.0858 36.6063 32.0394 36.3373C32.0294 36.3004 31.469 36.0103 31.3534 36.1518C31.1625 35.8215 30.5068 36.8271 30.1502 36.6296C30.1099 36.6071 30.2687 36.0431 29.6322 35.9407C29.4129 35.9057 28.8388 36.3454 28.261 35.8526C27.4245 36.0894 23.0264 35.3579 22.7246 35.9639C22.7157 35.9959 23.335 36.2046 22.9166 36.4533C22.3603 36.7839 22.8599 35.6703 22.2115 35.5742C22.1138 35.5596 20.3101 35.6723 20.251 35.7412C19.7048 36.3662 21.2809 36.6196 21.2588 36.6922C21.2039 36.8751 19.8942 36.9858 19.841 36.9427C19.7904 36.8978 20.8584 36.0697 19.575 36.3837C19.722 36.4827 19.869 36.5816 20.016 36.6806C19.4124 36.8733 19.3549 36.3004 19.2087 36.2654C18.7541 36.1546 18.2624 37.0248 17.534 35.95C17.3414 35.6647 17.6612 35.348 17.6371 35.3052C17.4057 34.9212 17.1106 35.9483 16.7627 35.1823C16.7365 35.1251 17.5461 34.6662 16.1311 34.665C16.2284 34.7385 16.3258 34.8119 16.4232 34.8854C16.2237 35.0493 14.791 35.1468 14.5982 35.108C14.0352 34.9947 14.5262 34.4675 13.9603 34.5305C14.3232 35.2531 12.6023 35.3474 12.7012 34.7253C12.4609 35.5066 10.9989 34.9039 10.3117 34.8854C9.87804 34.8742 8.99355 35.2152 8.85577 35.1753C8.68793 35.1264 8.73893 34.5935 8.43587 34.4748C8.34945 34.441 7.44726 34.8317 6.65534 34.28C6.50186 34.1737 6.17954 33.2697 6.46479 33.0437C6.95306 32.6571 7.87673 33.3854 7.86494 32.8512C7.85109 32.2798 6.60699 32.6196 6.27213 32.5451C4.72615 32.2001 5.61888 31.5927 5.57911 31.4085C5.47601 30.9617 4.63129 30.9756 4.59604 30.9354C4.44996 30.7569 5.04855 30.4033 5.05759 30.1305C5.06849 29.7755 4.25427 29.1346 4.43937 29.0149C4.70434 28.8449 5.45263 29.3791 5.50007 29.3535C6.11764 29.009 5.27113 28.1887 5.03783 27.7856C4.9671 27.6616 5.2489 27.4578 5.19026 27.4215C4.29515 26.8696 5.00157 28.5744 4.4062 28.4606C3.87502 28.3591 4.55847 27.82 4.53817 27.7902C4.51195 27.7576 3.87683 27.7282 3.77741 27.5374C3.72841 27.4419 5.37917 26.3933 5.31023 25.9231C4.78353 26.0267 4.25683 26.1303 3.73012 26.2339C3.68883 25.6209 4.44641 26.0721 4.52477 26.0089C4.68251 25.8821 4.24265 25.5719 4.26153 25.378C4.27166 25.2548 4.78791 24.8148 4.32152 24.6335C4.16123 24.5709 3.82485 25.0007 3.24106 24.5616C5.27272 24.0008 3.86482 23.6562 3.80493 23.439C3.74627 23.2219 4.7162 22.7108 3.53887 22.8012C3.48783 21.6081 3.56425 22.424 3.89879 22.2144C4.30861 21.9566 3.36144 21.5637 4.85928 21.8618C4.77407 21.3032 3.57015 21.3427 3.50641 21.2982C3.45137 21.2578 3.71898 20.983 3.62356 20.89C2.49493 19.8106 3.27013 20.3035 2.94325 19.6143C2.91417 19.5527 1.84744 19.2972 2.65955 19.1968C4.13908 19.0143 4.75744 19.8058 5.00607 18.1136C3.9117 17.3785 2.58572 18.4708 2.25305 18.4894C1.74385 18.516 2.27134 18.1709 2.20859 18.0742C2.1868 18.0429 1.748 18.0714 1.74211 18.044C1.42922 16.7534 3.69551 18.0226 4.40903 17.7982C4.21778 17.6049 4.02653 17.4116 3.83528 17.2183C4.09475 17.2106 4.35422 17.2028 4.61369 17.1951C3.37757 16.8066 4.57011 17.048 4.87833 16.0029C4.94753 15.7681 4.13545 16.1708 5.06182 15.5182C4.37857 15.3675 4.5965 15.154 3.97783 15.4486C3.9938 15.0297 5.38577 14.5572 5.9348 14.3422C3.99523 13.8715 5.10129 15.408 3.42455 14.595C3.11361 15.1137 3.91395 15.0127 3.84869 15.0984C3.61454 15.4062 3.06563 14.9174 2.40337 15.996C2.29554 16.1731 2.75182 16.7181 2.07662 16.6918C2.00194 16.6881 1.57171 16.2223 1.57768 16.1885C1.63471 15.8237 2.06046 15.9604 2.07803 15.8081C2.09453 15.6639 1.61954 15.7506 1.6179 15.7107C1.60331 15.2536 2.01421 15.536 1.95453 15.3929C1.82565 15.0817 0.117129 14.0982 2.34691 14.3863C0.494839 14.903 2.10979 14.891 2.83104 14.6925C3.01497 14.6427 3.06155 14.3697 3.32363 14.275C3.66075 14.1523 4.05533 14.2833 4.22977 14.2332C4.41739 14.178 3.35137 13.5327 4.89315 13.7253C4.10849 13.0834 2.72249 13.7677 1.95171 13.317C0.396632 12.4063 3.03597 12.2108 3.31093 12.1225C3.38418 12.0986 3.13859 11.7299 3.18742 11.7074C3.26728 11.6727 4.76521 11.8431 4.91291 11.538C5.06021 11.2332 4.36425 11.5521 4.31799 11.2342C4.28663 11.0202 6.09367 10.6406 5.11545 10.4943C4.44123 10.394 3.19845 11.2542 2.98912 10.3296C3.98066 10.2531 4.97219 10.1765 5.96373 10.1C5.42103 9.74822 4.87833 9.39644 4.33563 9.04466C5.44853 8.9331 6.41063 9.33025 7.46762 8.82664C4.92771 7.6994 8.2923 7.92704 8.32931 7.78985C8.34169 7.70781 7.34196 6.79286 7.1811 6.6255C8.06697 6.27353 10.7588 6.10153 9.18394 4.97175C9.46979 5.22685 10.162 4.59715 10.1529 4.54962C10.065 4.0505 8.55519 4.37416 8.80143 3.92337C9.08679 3.40025 9.48665 4.10994 9.92565 4.05326C12.1783 3.75779 11.5603 1.15222 13.8191 1.56452C13.7742 1.47174 13.7292 1.37897 13.6843 1.28619C16.1395 1.43386 18.5947 1.58153 21.0499 1.7292C22.0105 0.933506 24.5671 0.448982 25.8227 0.537014C26.0756 0.554159 27.3169 0.971758 27.4106 1.04497C27.5841 1.18528 26.6302 1.23882 27.0613 1.5019C27.1523 1.55589 29.2539 1.73136 29.1036 1.28619C28.8681 1.23457 28.1311 1.45835 28.0104 1.35345C27.1631 0.604746 33.6422 1.20288 33.9632 0.901165C33.8197 0.756586 33.6762 0.612009 33.5327 0.467432C33.9416 0.538561 34.3504 0.60969 34.7593 0.680819ZM15.9723 36.4347C15.7269 36.8814 15.1119 36.5459 14.7485 36.6713C14.2465 36.8469 13.3931 38.567 13.7605 36.843C14.4978 36.7069 15.235 36.5708 15.9723 36.4347ZM26.7472 37.1004C26.2528 36.8605 26.6363 35.8976 27.0415 36.2979C27.0864 36.3434 27.4161 37.4233 26.7472 37.1004ZM21.5644 36.6435C21.5852 36.6307 22.0124 36.6562 22.0273 36.6713C22.4105 37.0579 21.1224 36.9789 21.5644 36.6435ZM46.6013 36.1495C46.0565 36.191 46.451 37.0663 46.7897 36.7061C46.811 36.6832 46.6371 36.1474 46.6013 36.1495ZM46.2138 36.1263C45.7908 35.3424 44.9387 36.931 45.6161 36.7711C45.6818 36.7549 46.2334 36.1644 46.2138 36.1263ZM24.985 36.7177C25.0407 36.4173 25.5506 36.5623 25.7684 36.6342C25.7625 36.9085 25.1986 36.6841 24.985 36.7177ZM37.9145 36.6342C37.9362 36.398 36.1637 36.4111 36.043 36.7223C36.3227 36.5903 37.8942 36.8464 37.9145 36.6342ZM42.4601 36.3025C42.4152 36.2617 41.8028 36.3238 41.8207 36.5322C42.1196 36.8055 42.6624 36.4873 42.4601 36.3025ZM51.4947 36.3164C51.528 36.2641 51.0694 34.938 52.156 35.8108C52.3155 35.9386 51.7458 36.2851 51.8024 36.3327C51.9211 36.4255 52.015 36.4687 52.0903 36.4765C51.5843 36.5864 51.0586 36.6381 51.0078 36.5577C50.769 36.1778 51.48 36.3383 51.4947 36.3164ZM56.2379 35.3284C56.3421 35.1121 57.008 35.2277 57.1595 35.3168C57.1856 35.3335 57.0721 35.902 57.372 35.8595C57.6127 35.8244 57.2531 35.2422 57.722 35.3353C58.1959 35.4289 57.5628 35.8438 57.6041 35.8734C57.6596 35.9123 58.3927 35.6508 58.3699 35.9894C58.3528 36.2402 57.5676 36.0706 57.3734 36.1239C57.1247 36.1924 57.4262 36.6103 57.0106 36.5206C56.7495 36.4645 56.8943 35.7297 56.8391 35.6925C56.7929 35.6626 55.8801 36.0855 56.2393 35.3307C56.2388 35.3299 56.2383 35.3291 56.2379 35.3284ZM52.2273 36.444C52.1892 36.4688 52.1445 36.482 52.0903 36.4765C52.1363 36.4665 52.182 36.4549 52.2273 36.444ZM17.4006 36.1123C17.6576 36.339 16.8949 36.6296 16.606 36.3327C16.601 36.0933 17.3597 36.0771 17.4006 36.1123ZM52.6966 35.8456C53.4483 36.0297 52.8954 36.2829 52.2273 36.444C52.4394 36.3057 52.4441 35.7841 52.6966 35.8456ZM31.3534 36.1518C31.3851 36.2066 31.4053 36.292 31.4078 36.4324C31.3245 36.2789 31.317 36.1964 31.3534 36.1518ZM33.1072 36.4023C33.7084 35.9746 32.4869 35.9919 32.4946 36.2979C32.4982 36.4134 33.0831 36.4193 33.1072 36.4023ZM47.2999 36.1912C47.2449 36.1494 48.0993 34.858 46.8588 35.827C47.5209 35.9792 46.8224 36.1199 46.8327 36.233C46.8597 36.558 47.9718 36.2456 48.2181 36.386C48.4109 35.8045 47.4815 36.3291 47.3013 36.1912C47.3009 36.1912 47.3004 36.1912 47.2999 36.1912ZM64.7863 35.6415C64.6356 35.9823 64.1575 35.8726 63.835 35.8526C63.9856 35.5118 64.4637 35.6214 64.7863 35.6415ZM149.2 35.6902C146.989 36.0053 146.703 34.6175 148.725 35.166C148.765 35.1775 149.334 35.5495 149.2 35.6902ZM130.23 35.3307C130.022 34.7259 130.711 34.6286 131.164 34.8784C131.266 34.9346 131.645 35.5472 131.212 35.667C131.226 34.9339 130.557 34.6539 130.23 35.3307ZM53.1214 35.4583C53.3403 35.0549 54.0141 35.342 54.3691 35.4026C54.1525 35.7347 53.4353 35.5845 53.1214 35.4583ZM141.936 34.9665C141.703 34.9207 141.546 35.447 141.586 35.4907C141.766 35.6916 142.202 35.2661 141.936 34.9665ZM50.9464 35.3956C50.9156 35.1546 51.808 34.9226 51.8702 35.5186C51.6794 35.4754 50.9685 35.5469 50.9464 35.3956ZM64.1779 35.4606C64.0394 35.338 64.757 35.1186 64.974 35.2402C64.9565 35.4968 64.2688 35.5402 64.1779 35.4606ZM138.185 35.1451C137.977 35.0994 137.456 35.0855 137.398 35.2982C137.326 35.5641 138.09 35.4735 138.185 35.1451ZM177.004 34.6859C177.031 34.7815 176.223 35.4702 175.865 35.2959C175.183 34.9624 176.976 34.6184 177.004 34.6859ZM144.142 34.6952C144.8 35.1956 144.069 34.711 144.098 35.2379C144.541 35.2569 145.642 35.2829 144.885 34.7648C144.737 34.6645 144.348 34.7293 144.142 34.6952ZM143.535 34.5189C143.464 34.6896 142.99 35.2278 143.4 35.1892C143.59 35.1706 143.895 34.5726 143.535 34.5189ZM172.003 34.9202C171.413 34.4536 174.116 34.7039 174.194 34.7856C174.235 34.8288 174.262 34.8695 174.277 34.9039C174.377 34.7561 174.887 34.7294 174.946 35.1034C174.793 35.0725 174.375 35.1054 174.327 35.064C174.306 35.0463 174.29 35.0298 174.28 35.0129C174.099 35.3376 172.116 35.0086 172.003 34.9202ZM167.524 34.44C168.198 33.7518 168.318 34.9219 168.26 34.9596C167.525 35.4385 168.004 34.5756 167.982 34.5351C167.93 34.4679 167.409 34.8683 167.526 34.44C167.525 34.44 167.524 34.44 167.524 34.44ZM171.085 34.7276C171.112 34.7124 171.679 34.7486 171.702 34.7671C172.167 35.1603 170.564 35.0596 171.085 34.7276ZM59.8131 34.5096C60.2186 34.6259 59.8208 35.0564 59.5512 34.9016C59.5291 34.8863 59.4553 34.4069 59.8131 34.5096ZM143.211 34.6349C143.117 34.5535 140.711 34.2468 140.856 34.897C141.06 34.8202 143.794 35.1549 143.211 34.6349ZM125.234 34.4771C125.658 34.4822 125.196 35.0954 124.969 34.8668C124.886 34.7819 125.127 34.4763 125.234 34.4771ZM49.7431 34.839C49.3027 35.1759 49.3938 34.0457 49.7756 34.4331C49.7906 34.4482 49.7604 34.8258 49.7431 34.839ZM128.623 34.8297C127.16 35.2013 127.506 33.2572 129.408 33.9135C129.349 34.0001 129.289 34.0867 129.23 34.1733C131.425 34.4649 129.38 34.3103 128.842 34.4192C128.638 34.4605 128.809 34.785 128.624 34.832C128.624 34.8312 128.623 34.8305 128.623 34.8297ZM123.003 34.44C121.594 33.0602 124.284 33.9588 125.056 33.779C124.308 34.3488 123.334 34.2626 124.658 34.8459C122.722 34.9587 123.528 34.4092 123.451 34.3635C123.359 34.3123 123.063 34.4993 123.003 34.44ZM126.72 34.4308C126.801 34.3905 127.415 34.6714 127.636 34.6256C127.327 35.097 126.179 34.7045 126.72 34.4308ZM162.828 34.7601C162.879 34.3908 163.005 34.1188 163.489 34.2568C163.339 34.4424 163.03 34.602 162.828 34.7601ZM15.5065 34.4911C15.173 34.4646 14.5089 34.3254 14.7126 34.7137C14.7348 34.7468 15.5055 34.709 15.5065 34.4911ZM136.224 34.3357C136.153 34.2903 134.319 34.2598 134.953 34.6673C135.144 34.7902 136.813 34.738 136.224 34.3357ZM145.723 34.382C145.57 34.3782 144.946 34.4478 144.933 34.5351C144.891 34.8371 145.656 34.6711 145.723 34.382ZM13.824 34.113C13.7801 34.0747 12.7615 34.1426 12.8734 34.3217C13.086 34.6606 13.9746 34.245 13.824 34.113ZM61.2887 33.6445C61.3739 33.6308 61.4865 34.032 61.516 34.0365C61.5852 34.0422 63.144 33.8879 62.5484 34.4029C62.4491 34.4892 60.2064 34.2914 59.9147 34.2406C59.8019 33.6898 60.7599 34.2137 60.993 34.1571C61.0341 34.1463 61.0604 33.6856 61.288 33.6468C61.2882 33.646 61.2885 33.6452 61.2887 33.6445ZM165.351 34.3705C165.42 34.0203 167.252 33.7885 167.231 34.2127C166.604 34.2653 165.977 34.3179 165.351 34.3705ZM164.42 34.3125C164.029 34.0648 164.945 33.9828 165.215 34.0921C165.217 34.3277 164.477 34.3487 164.42 34.3125ZM142.248 33.0739C142.063 33.1595 142.63 33.6704 142.503 33.7697C142.422 33.8316 142.01 33.6401 141.879 33.7999C141.842 33.8507 142.262 34.3309 142.383 34.3101C142.556 34.2824 142.388 33.9045 142.576 33.9019C143.201 33.8938 143.755 34.1633 144.341 34.1571C144.394 34.1558 143.984 33.8889 144.435 33.8927C144.504 33.8927 144.923 34.2902 145.463 34.2313C146.655 33.0002 147.53 34.209 149.042 33.7651C148.985 33.6491 147.854 33.3382 147.788 33.3267C146.523 33.1243 144.258 33.102 142.934 33.0994C142.595 33.0983 142.759 33.3589 142.613 33.3685C142.497 33.3755 142.635 32.893 142.248 33.0739ZM15.6836 34.2243C15.5247 33.7424 14.9671 34.0474 14.6109 34.0225C14.7363 34.4572 15.3356 34.1175 15.6836 34.2243ZM156.193 33.939C156.014 33.9576 155.461 33.8125 155.415 33.9576C155.356 34.1471 156.155 34.2666 156.193 33.939ZM70.0778 33.7813C70.095 33.7682 70.5245 33.794 70.5407 33.8092C70.9244 34.1959 69.6363 34.1167 70.0778 33.7813ZM80.3509 33.8741C80.6766 33.8146 81.0051 33.664 81.1145 34.055C80.907 33.9951 80.3128 34.1464 80.3509 33.8741ZM94.5239 33.8625C94.4567 33.3505 95.4369 33.682 95.622 33.728C95.5534 33.9555 94.5732 34.2314 94.5239 33.8625ZM162.757 33.1528C163.357 33.183 163.23 32.4074 163.61 32.7585C163.673 32.8178 163.873 34.4328 163.215 33.8277C163.096 33.7189 163.56 33.3351 162.757 33.1528ZM129.718 33.9298C129.871 33.591 130.347 33.6916 130.669 33.7187C130.597 33.9704 129.947 33.9056 129.718 33.9298ZM11.9842 33.7257C11.7032 33.2474 10.4046 33.6022 10.7259 33.9182C10.7716 33.9594 11.8021 33.7076 11.9842 33.7257ZM54.6451 33.9135C55.1794 33.537 54.0727 33.4203 53.7234 33.7883C53.8816 33.7642 54.609 33.9383 54.6451 33.9135ZM91.1195 33.5842C91.1452 33.5687 91.7117 33.6051 91.737 33.6236C92.2013 34.0168 90.5984 33.9161 91.1195 33.5842ZM76.9727 33.2525C77.1768 32.9426 78.5188 33.1926 78.8195 33.503C78.5301 33.9561 76.7193 33.6395 76.9727 33.2525ZM160.291 33.3731C160.719 33.357 161.125 33.4525 161.517 33.5865C161.435 33.8474 160.337 33.568 160.291 33.3731ZM93.1993 33.5517C93.2297 33.5538 93.2592 33.5833 93.2882 33.5865C93.2579 33.5754 93.2283 33.5628 93.1993 33.5517ZM150.723 33.1899C150.364 33.0868 150.439 33.5649 150.461 33.5795C150.73 33.7344 151.128 33.3062 150.723 33.1899ZM15.2743 33.5146C15.1501 33.0832 14.5475 33.4178 14.2009 33.3151C14.3015 33.6559 14.9951 33.5598 15.2743 33.5146ZM121.494 33.5563C121.044 33.0885 122.876 32.5451 123.262 32.8466C123.29 33.1356 121.56 33.6204 121.494 33.5563ZM52.9859 33.2664C52.95 32.9283 52.1811 33.3363 52.3444 33.496C52.4479 33.5977 53.0074 33.4764 52.9859 33.2664ZM124.183 33.0437C124.355 32.9406 124.756 33.2742 124.614 33.4775C124.433 33.7381 124.138 33.0733 124.183 33.0437ZM139.62 32.7724C139.545 32.7207 138.533 33.0677 138.951 33.4125C139.241 33.6522 139.287 33.1635 139.356 33.162C139.432 33.1636 141.056 33.7616 139.62 32.7724ZM111.238 33.2618C111.619 33.1318 112.081 33.2827 112.48 33.2734C112.318 33.4824 111.4 33.5395 111.238 33.2618ZM55.9514 33.1759C55.8586 33.0392 53.3332 32.9569 54.7679 33.3777C54.8515 33.4015 56.2329 33.59 55.9514 33.1759ZM162.757 33.1528C162.682 33.1489 162.594 33.1328 162.493 33.0994C162.594 33.1126 162.681 33.1355 162.757 33.1528ZM155.951 33.1017C156.089 32.8556 155.394 32.7898 155.189 32.9208C155.126 33.2215 155.932 33.1361 155.951 33.1017ZM112.511 32.9301C112.741 32.7893 113.159 32.9395 113.444 32.9231C113.395 33.1519 112.61 33.1625 112.511 32.9301ZM96.3461 32.6726C96.8032 32.8086 97.3657 32.7461 97.3743 32.4662C97.3838 32.5099 97.406 32.5564 97.4428 32.6031C97.48 32.6493 97.9696 32.5191 98.1824 32.6146C99.4561 33.182 93.2639 32.9479 96.8528 32.1577C96.6839 32.3294 96.515 32.501 96.3461 32.6726ZM75.1568 32.5938C74.8974 32.2531 74.1708 32.68 74.3594 32.8141C74.4907 32.906 75.4166 32.9367 75.1568 32.5938ZM85.14 32.392C85.0624 32.3312 84.353 32.5698 84.3347 32.7492C84.7426 32.9382 85.4932 32.6744 85.14 32.392ZM73.1625 32.1948C72.9996 32.1434 72.7919 32.6927 72.811 32.7167C72.9765 32.9172 73.4359 32.5007 73.1625 32.1948ZM161.516 31.673C161.274 31.5157 160.501 31.9133 160.333 32.276C160.302 32.2059 160.217 32.1144 160.063 32.0046C160.063 32.0046 160.064 32.0046 160.064 32.0046C159.855 31.8581 153.613 31.698 157.8 32.3966C157.931 32.419 157.752 32.0934 158.286 32.1508C158.321 32.1549 158.339 32.4208 158.447 32.4337C158.698 32.4618 160.032 32.6291 160.301 32.4152C160.303 32.4645 160.32 32.5113 160.357 32.5543C160.686 32.9377 161.704 31.7942 161.516 31.673ZM86.5465 32.3433C86.4037 32.2448 85.9518 32.3383 85.905 32.5729C86.1291 32.6879 86.8778 32.5731 86.5465 32.3433ZM55.873 32.2134C55.5821 32.0204 54.845 32.3812 55.0678 32.5729C55.2044 32.6908 56.2085 32.4349 55.873 32.2134ZM82.02 32.4685C83.6878 32.7458 82.418 32.4461 82.6735 32.1021C82.4556 32.2242 82.2378 32.3464 82.02 32.4685ZM169.235 32.5613C168.969 32.4821 169.282 31.8033 169.575 32.1716C169.666 32.2886 169.384 32.6043 169.235 32.5613ZM181.244 32.3502C181.017 31.7483 182.126 32.102 181.694 32.5149C181.674 32.5288 181.261 32.3731 181.244 32.3502ZM172.853 32.1044C172.672 32.5142 172.555 32.5629 172.046 32.4616C172.799 32.3461 172.101 31.9836 172.853 32.1044ZM97.3694 32.4221C97.3723 32.4387 97.3748 32.4509 97.3743 32.4662C97.3711 32.4511 97.3697 32.4369 97.3694 32.4221ZM71.5944 32.3015C71.3856 31.9543 70.8004 31.9799 70.9747 32.3294C70.9916 32.3617 71.5088 32.5581 71.5944 32.3015ZM160.333 32.276C160.361 32.3382 160.347 32.3784 160.301 32.4152C160.298 32.3688 160.31 32.325 160.333 32.276ZM74.7362 32.0186C74.7153 32.2776 75.6059 32.3783 75.6417 32.3479C76.1528 31.8987 75.104 32.003 74.7362 32.0186ZM49.9845 31.8492C49.9385 31.8763 50.2348 32.545 50.4164 32.283C50.557 32.0797 50.1565 31.7464 49.9845 31.8492ZM174.579 31.9374C174.862 31.9378 175.259 31.9375 175.332 32.2551C175.143 32.2064 174.574 32.1704 174.579 31.9374ZM180.81 31.9142C180.477 32.2876 179.716 32.2865 179.229 32.225C179.221 31.7335 180.497 32.0298 180.81 31.9142ZM162.281 31.8562C162.258 31.8362 161.551 31.6896 161.647 32.0186C161.788 32.501 162.48 32.0351 162.281 31.8562ZM51.3578 32.2041C51.6741 31.9775 50.9463 31.2812 50.6126 31.8191C50.4412 32.0945 51.3045 32.2421 51.3578 32.2041ZM69.7673 31.8469C69.3499 32.0373 70.3843 32.3765 70.5287 32.0325C70.3365 32.0049 69.9155 31.7795 69.7673 31.8469ZM83.9671 31.499C82.6519 30.5068 83.3682 32.3168 83.6015 32.1577C83.6344 32.135 83.9992 31.5223 83.9671 31.499ZM8.72098 31.7425C8.5348 31.8804 9.2289 32.3798 9.31873 32.051C9.37423 31.8453 8.84004 31.6547 8.72098 31.7425ZM103.77 32.1438C103.715 32.147 103.66 32.1503 103.605 32.1531C103.646 32.1369 103.7 32.1316 103.77 32.1438ZM65.9789 30.5179C66.9047 31.9188 66.8075 30.839 66.8879 30.8449C67.0618 30.86 67.4658 31.2388 67.7933 31.1766C67.4181 31.3343 67.0429 31.492 66.6677 31.6498C66.9641 31.7509 69.539 32.2666 69.5929 32.0394C69.6702 31.7159 68.86 31.8174 68.8364 31.7889C68.8024 31.7483 68.6758 30.849 68.6007 30.8148C68.477 30.7601 66.324 30.7415 65.9789 30.5179ZM81.2169 31.6544C81.4283 31.7613 81.4884 32.1177 81.5867 32.0325C81.6201 32.0033 81.6255 31.6635 81.7398 31.5755C81.5655 31.6018 81.3912 31.6281 81.2169 31.6544ZM64.3212 31.7773C64.0591 31.362 65.2341 31.5197 65.2718 31.5663C65.4728 31.8478 64.5354 32.1166 64.3212 31.7773ZM74.2916 31.717C74.2487 31.6928 73.3464 31.5631 73.3537 31.7936C73.5924 31.9693 74.7988 32.0204 74.2916 31.717ZM81.8809 31.5524C82.198 31.592 82.7972 31.9342 82.7285 31.4225C82.728 31.4225 82.7276 31.4225 82.7271 31.4225C82.4451 31.4658 82.163 31.5091 81.8809 31.5524ZM52.4404 31.1233C51.8529 30.3082 52.1312 31.3381 52.6514 31.6011C52.809 31.2351 52.5367 31.2559 52.4404 31.1233ZM50.5603 30.5156C50.3969 30.3689 48.7127 30.5296 48.9697 30.9609C49.061 31.1146 50.0295 30.727 50.0741 30.7568C50.1418 30.801 49.8328 31.2781 50.3493 31.1836C50.3191 31.0219 50.6163 30.5646 50.5603 30.5156ZM51.9541 30.6014C51.3704 29.9815 51.2392 31.1248 51.6782 31.1279C51.8498 31.1299 52.0374 30.6908 51.9541 30.6014ZM54.3388 30.6988C54.1287 30.5904 53.5692 30.4322 53.1835 30.8125C53.6996 30.8449 54.2157 30.8774 54.7319 30.9099C54.7914 30.6945 54.5225 30.7941 54.3374 30.6988C54.3378 30.6988 54.3383 30.6988 54.3388 30.6988ZM184.318 28.9847C183.855 28.6605 184.923 28.5363 184.968 28.616C185.103 28.8804 184.526 29.1296 184.318 28.9847ZM5.09781 21.3562C4.96893 21.2269 4.88467 20.8017 4.60098 21.0245C4.88633 21.3384 5.17168 21.6523 5.45702 21.9662C5.67877 21.2469 5.23868 21.4987 5.09781 21.3562ZM4.00818 18.7283C4.04849 18.7108 3.8283 17.6049 4.34904 18.3432C4.70088 18.8418 2.78756 19.3277 2.44218 18.8373C2.8238 18.6094 3.6612 18.8702 4.00818 18.7283ZM0.65671 13.941C0.634648 13.8528 1.36157 13.7234 1.44571 13.7856C1.88751 14.1133 0.776068 14.4135 0.65671 13.941ZM2.97571 14.152C2.6348 13.9373 3.39002 13.7988 3.61509 13.9224C3.63692 14.1283 3.02837 14.1833 2.97571 14.152ZM179.621 12.9668C179.252 12.2152 178.922 13.8332 179.49 13.5072C179.517 13.4919 179.637 13.0036 179.621 12.9668ZM1.36737 12.8253C1.70828 13.0401 0.953059 13.1785 0.727988 13.0549C0.707056 12.8493 1.31546 12.7939 1.36737 12.8253ZM179.361 11.1762C178.872 10.6353 179.044 12.4506 179.105 12.5238C179.357 12.8127 180.222 12.1002 180.399 11.9231C179.105 12.1955 179.592 11.4311 179.361 11.1762ZM177.102 12.2663C176.647 12.46 177.809 12.8304 178.03 12.3243C177.805 12.3485 177.231 12.2104 177.102 12.2663ZM174.343 11.6842C174.099 11.6192 173.372 11.4635 173.25 11.7491C173.517 11.6974 174.24 11.9781 174.343 11.6842ZM173.79 10.8283C173.408 10.4402 173.316 11.571 173.757 11.2342C173.774 11.2212 173.804 10.8499 173.79 10.8283ZM171.642 10.4201C171.392 9.97037 171.106 11.0655 171.512 11.095C171.632 11.1018 171.669 10.4716 171.642 10.4201ZM178.748 9.22326C178.389 9.03015 177.927 9.8144 178.693 9.90053C178.424 10.0204 178.155 10.1402 177.886 10.26C178.889 10.6996 178.816 9.61203 179.104 9.65699C179.507 9.72089 179.475 10.6184 179.394 10.9002C179.724 10.3503 181.127 10.3415 181.937 10.2368C181.225 10.0061 180.069 9.60604 179.366 9.45984C179.165 9.41751 178.97 9.66364 178.799 9.63612C178.525 9.59066 178.768 9.23626 178.75 9.22326C178.749 9.22326 178.749 9.22326 178.748 9.22326ZM168.819 10.4038C168.083 9.89442 168.549 10.9943 168.965 10.7981C168.983 10.783 168.838 10.4163 168.819 10.4038ZM0.390653 9.48303C1.37475 9.94276 0.659433 10.5521 2.71812 9.62684C1.85322 10.2818 2.67029 10.0979 2.50146 10.3621C2.36603 10.5711 1.85857 10.398 2.15354 10.819C1.76582 10.3608 0.0824925 10.4875 0.00744697 10.4131C0.00815269 10.4131 0.00885841 10.4131 0.00956413 10.4131C-0.035509 10.369 0.0766311 9.33683 0.390653 9.48303ZM174.34 8.80808C174.094 7.47355 173.997 9.59174 173.515 8.48568C172.872 10.0918 175.291 8.48592 175.584 9.84254C172.956 9.68491 177.32 11.1868 175.486 9.15599C176.996 9.89307 175.981 8.90449 176.214 8.64572C176.463 8.37008 177.318 8.66964 177.275 8.17256C177.274 8.17256 177.274 8.17256 177.273 8.17256C176.751 8.20735 176.228 8.24214 175.705 8.27693C176.217 9.34921 175.149 9.02769 174.786 8.154C174.637 8.37203 174.488 8.59006 174.34 8.80808ZM177.298 9.81471C177.246 9.79016 176.109 9.94045 176.183 10.1557C176.335 10.2929 177.948 10.1283 177.298 9.81471ZM182.301 9.58045C181.893 9.57784 181.262 9.36865 181.04 9.77296C181.448 9.77568 182.079 9.98499 182.301 9.58045ZM161.282 9.50391C160.761 9.8357 162.363 9.93398 161.9 9.54102C161.877 9.52252 161.307 9.48842 161.282 9.50391ZM173.156 9.00987C172.627 8.60203 172.877 9.90018 173.269 9.56189C173.292 9.54195 173.18 9.02847 173.156 9.00987ZM1.18812 9.32531C1.22351 9.00726 2.65133 9.23066 2.90443 9.2279C2.76063 9.52354 1.14752 9.68993 1.18812 9.32531ZM183.02 8.39058C182.208 7.24695 181.105 8.56789 180.985 8.53903C180.864 8.50961 181.053 8.0097 181.026 7.99628C180.963 7.96824 179.683 8.01019 179.621 8.04499C179.577 8.07212 179.808 8.77465 179.544 8.99595C180.06 8.59676 182.4 8.8465 182.521 8.76865C182.615 8.70649 181.906 7.96875 183.018 8.39058C183.019 8.39058 183.019 8.39058 183.02 8.39058ZM180.683 8.38595C181.002 8.68043 180.106 8.71728 179.889 8.60861C179.406 8.36543 180.642 8.35105 180.683 8.38595ZM178.526 8.11457C178.423 8.04852 177.499 7.98853 177.421 8.31636C177.858 8.74165 178.758 8.26848 178.526 8.11457ZM168.242 8.15864C168.002 8.20065 167.342 7.94871 167.304 8.23518C167.544 8.1934 168.204 8.44514 168.242 8.15864ZM6.05971 6.82497C5.66096 6.58527 6.58483 6.48734 6.85435 6.60231C6.86898 6.79341 6.09366 6.84556 6.05971 6.82497ZM173.066 6.27063C172.924 6.18352 170.025 6.4009 169.618 6.53505C170.016 6.75169 172.889 6.76835 173.02 6.66261C173.058 6.63096 173.085 6.28434 173.066 6.27063ZM179.337 6.13842C179.603 5.71656 179.776 6.22253 179.81 6.22888C180.138 6.29343 180.82 6.19832 180.671 6.60463C180.09 6.4407 178.808 6.97617 179.337 6.13842ZM168.036 6.24976C167.052 6.40631 168.943 6.85076 168.694 6.4098C168.678 6.38314 168.138 6.23332 168.036 6.24976ZM173.39 6.1477C173.607 5.80682 176.508 6.1008 176.973 6.10131C176.556 6.73005 176.22 6.25249 175.66 6.28455C175.509 6.29394 175.549 6.55551 175.533 6.55592C175.271 6.56804 175.467 6.26594 175.306 6.26135C175.204 6.25928 173.085 6.62798 173.39 6.1477ZM179.488 5.84618C179.651 5.60435 181.462 5.50126 181.534 5.56553C182.079 6.0435 179.629 5.93036 179.488 5.84618ZM173.124 5.58872C173.436 4.85801 174.876 5.34737 173.891 5.71165C173.797 5.74479 173.398 5.42803 173.124 5.58872ZM168.141 5.55393C168.093 5.53244 167.066 5.38638 167.048 5.61887C167.196 5.70922 168.692 5.79028 168.141 5.55393ZM168.673 4.76764C168.649 4.77322 168.889 5.22101 168.408 5.16427C168.368 5.15893 168.293 4.65512 167.688 4.83955C167.565 4.87753 167.375 5.21081 167.389 5.23153C168.019 6.02217 169.916 4.50789 168.673 4.76764ZM179.522 5.43796C179.424 5.2253 179.659 4.59413 179.872 4.91377C179.963 5.05179 179.793 5.43058 179.522 5.43796ZM164.886 5.34982C165.483 4.96703 163.61 4.89466 163.514 4.99263C163.575 5.23107 164.827 5.38721 164.886 5.34982ZM6.99338 3.87003C6.99291 3.87003 6.99244 3.87003 6.99197 3.87003C7.49389 3.95676 7.183 4.2752 7.20651 4.2852C8.27562 4.75293 7.99205 4.03168 8.15923 3.94657C8.51771 3.76248 8.45996 4.63957 9.06467 4.27593C8.0651 4.81293 8.97496 4.58781 9.00327 4.89985C9.11529 6.17325 7.67242 4.30358 7.17404 4.57049C7.1046 4.60745 7.6173 5.01386 7.43939 5.12947C6.86095 5.5041 5.06741 3.53834 6.99338 3.87003ZM180.035 4.8581C180.268 4.48406 182.034 4.84685 181.566 5.15499C181.491 5.20439 179.693 5.40329 180.035 4.8581ZM97.5296 4.30608C97.9541 3.98238 96.9703 3.60185 96.7879 3.85379C96.6974 3.97931 97.3432 4.44814 97.5296 4.30608ZM90.6319 2.92138C90.1275 2.98709 89.5957 4.33696 90.2233 4.12748C90.29 4.10459 90.6897 3.10863 90.6319 2.92138ZM123.753 3.61489C123.226 3.13249 123.257 4.02879 123.644 4.01615C123.781 4.01183 123.769 3.63016 123.753 3.61489ZM103.651 3.73086C103.598 3.69957 102.989 3.7568 103.012 3.9628C103.237 4.0864 103.992 3.94563 103.651 3.73086ZM123.92 3.48732C123.608 3.64886 124.145 4.29714 124.527 3.6636C124.333 3.71556 123.952 3.47082 123.92 3.48732ZM172.036 3.60793C171.775 3.97598 171.035 3.86477 170.61 3.92801C170.564 3.45119 171.732 3.69438 172.036 3.60793ZM92.773 3.46413C92.2955 3.80019 93.3185 4.07532 93.2247 3.63113C93.2117 3.607 92.7918 3.4498 92.773 3.46413ZM140.745 3.43861C140.398 3.72305 141.5 4.10555 141.197 3.60561C141.182 3.58523 140.764 3.42279 140.745 3.43861ZM145.557 3.60329C145.294 3.50735 144.171 3.53687 144.608 3.81436C144.676 3.857 145.538 3.86381 145.557 3.60329ZM8.18887 3.60329C8.04698 3.11348 8.87055 3.23007 8.98845 3.31568C9.03477 3.35129 8.37393 4.24057 8.18887 3.60329ZM120.332 3.53835C120.06 3.59963 119.353 3.48318 119.228 3.74014C119.562 3.68695 120.422 4.05023 120.332 3.53835ZM94.9502 3.46181C94.5344 2.92956 93.8239 2.98209 93.9996 3.67752C94.7843 3.63091 93.9026 3.05245 94.9502 3.46181ZM125.675 2.91442C125.457 2.87382 125.289 3.54168 125.314 3.57314C125.551 3.87249 125.892 3.17427 125.675 2.91442ZM109.276 3.46413C109.264 3.17872 108.563 3.30826 108.657 3.49196C108.687 3.55363 109.287 3.6951 109.276 3.46413ZM162.862 3.44557C162.541 3.18507 163.521 2.93038 163.811 3.2345C163.952 3.67272 162.902 3.4755 162.862 3.44557ZM131.735 3.08142C131.768 2.65787 130.673 2.89734 131.104 3.24842C131.212 3.33627 131.724 3.22305 131.735 3.08142ZM142.217 2.57347C141.483 3.07856 144.567 3.43715 143.756 2.80773C143.698 2.76288 142.281 2.53082 142.217 2.57347ZM147.254 2.88891C147.127 2.83326 147.19 1.40999 147.715 1.95882C147.784 2.03 147.462 2.40624 147.518 2.49229C147.551 2.54133 148.691 2.74122 148.744 2.708C148.8 2.67027 148.734 2.2141 148.791 2.16293C148.856 2.10575 149.558 2.50647 149.925 2.51085C150.618 2.51836 150.693 2.13868 150.749 2.13742C150.915 2.1349 151.193 2.40449 151.529 2.40415C153.219 2.40112 155.806 2.07928 157.146 2.88427C155.953 2.56101 154.816 2.90399 153.629 3.00952C153.977 2.21698 151.883 3.62017 153.108 2.70568C152.544 2.90404 147.669 3.06268 147.255 2.88891C147.255 2.88891 147.254 2.88891 147.254 2.88891ZM88.641 2.52244C88.9509 2.03649 87.361 2.1458 87.2261 2.708C87.436 2.78602 88.6026 2.57752 88.641 2.52244ZM95.9763 1.33722C96.1239 1.25334 96.2641 0.303463 97.0384 0.785192C97.0391 0.785192 97.0398 0.785192 97.0405 0.785192C97.2669 0.925877 97.0089 1.15733 97.0504 1.2398C97.0655 1.27348 97.7716 1.74599 97.1852 1.82198C96.2909 1.93856 97.101 1.11533 96.6242 1.10527C96.5658 1.1045 95.6634 1.61866 95.7159 1.73152C95.7213 1.74467 95.9929 1.6359 96.0377 1.68281C96.2071 1.85915 96.1246 2.15577 96.1485 2.16989C96.2266 2.20606 97.6537 1.70072 97.8613 2.14206C97.9287 2.28437 95.5863 2.61267 95.495 2.53868C95.4373 2.49205 95.4616 1.66869 95.4018 1.58771C95.3711 1.54738 94.4289 1.85592 94.3066 1.78023C94.271 1.75833 94.2439 1.73473 94.224 1.71528C94.3666 1.97002 93.5133 1.95168 93.5394 1.66426C93.5543 1.55129 94.1416 1.61667 94.1626 1.63642C94.1718 1.64478 94.1798 1.65631 94.1873 1.66426C94.0657 1.35381 96.0541 1.36782 95.6249 0.905804C96.2013 0.652706 95.5431 1.58356 95.9763 1.33722ZM98.747 0.829262C98.6874 0.915854 98.6279 1.00245 98.5684 1.08904C99.5775 0.877094 100.742 1.29393 101.904 1.29083C102.199 1.29067 101.86 0.761087 102.247 0.905804C102.556 1.02178 102.899 1.51298 102.731 1.62251C102.69 1.64983 102.059 1.3299 101.743 1.36273C100.812 1.45993 101.047 1.91408 100.993 1.92635C100.932 1.93926 100.346 1.61988 100.026 1.6341C99.2205 1.67086 98.8527 1.94969 97.7526 1.58539C98.3875 1.28608 98.0397 0.635853 98.747 0.829262ZM136.36 1.79646C136.398 1.51061 137.058 1.76423 137.298 1.72224C137.261 2.0088 136.6 1.75446 136.36 1.79646ZM37.9569 1.42535C37.754 1.89444 39.2742 2.01059 38.8736 1.62019C38.785 1.53354 38.1479 1.42869 37.9569 1.42535ZM44.7861 1.71064C44.9895 1.58095 44.1706 1.24322 44.1722 1.60627C44.1734 1.72269 44.7599 1.72751 44.7861 1.71064ZM111.791 1.29083C111.829 1.27614 112.389 1.38062 112.406 1.40448C112.777 1.90255 110.936 1.61468 111.791 1.29083ZM53.0882 1.13311C52.3794 1.44057 54.5129 1.57383 53.861 1.18181C53.8285 1.16272 53.1223 1.11816 53.0882 1.13311ZM56.0537 1.04729C55.8838 1.06377 55.1292 0.911106 55.1193 1.05425C55.1043 1.28517 55.9679 1.44296 56.0537 1.04729ZM125.823 1.14239C125.741 0.613853 126.736 1.01411 127.082 0.947554C127.164 1.47645 126.168 1.07564 125.823 1.14239ZM119.542 0.752722C123.737 0.336075 122.812 1.46531 119.293 1.01018C119.288 0.671106 119.278 0.778961 119.542 0.752722ZM124.914 0.815346C124.761 1.15394 124.285 1.05354 123.963 1.02641C124.021 0.791002 124.682 0.8762 124.914 0.815346ZM36.1467 0.699375C36.4098 0.271648 37.5747 0.798962 37.3676 0.975386C37.3194 1.01349 36.0501 0.934593 36.1467 0.699375ZM112.142 0.838539C112.045 0.324526 113.304 0.534193 113.401 0.648348C113.789 1.10751 112.244 0.72509 112.142 0.838539ZM131.776 0.690098C131.999 0.287477 132.63 0.49456 133.037 0.499905C132.852 0.844173 132.121 0.69734 131.776 0.690098ZM128.843 0.374655C128.869 0.359201 129.435 0.39555 129.461 0.414085C129.925 0.807331 128.322 0.706621 128.843 0.374655ZM6.29754 0.00354767C6.31642 -0.00942612 6.74553 0.0162449 6.76049 0.0313797C7.14351 0.417933 5.85559 0.338947 6.29754 0.00354767Z" fill="var(--stroke-0, #BDA8FF)"/>
</g>
</svg>
