<svg width="21" height="20" viewBox="0 0 21 20" fill="none" xmlns="http://www.w3.org/2000/svg">
<g clip-path="url(#clip0_311_1318)">
<path d="M10.0828 0.833984C5.02077 0.833984 0.916016 4.93954 0.916016 10.0042C0.916016 14.0559 3.54257 17.4933 7.18479 18.7058C7.64292 18.7907 7.81111 18.5069 7.81111 18.2647C7.81111 18.046 7.80261 17.3236 7.79866 16.5574C5.24847 17.1121 4.71034 15.4754 4.71034 15.4754C4.29336 14.4155 3.69254 14.1336 3.69254 14.1336C2.86084 13.5645 3.75524 13.5762 3.75524 13.5762C4.67573 13.6408 5.16042 14.5211 5.16042 14.5211C5.97801 15.9231 7.30487 15.5178 7.82796 15.2835C7.91023 14.6908 8.1478 14.2862 8.40995 14.0572C6.37389 13.8253 4.23355 13.039 4.23355 9.52526C4.23355 8.52408 4.59164 7.70604 5.17803 7.06384C5.08286 6.83287 4.76909 5.90018 5.26683 4.63704C5.26683 4.63704 6.0366 4.39058 7.78834 5.57703C8.51955 5.37385 9.30373 5.27195 10.0828 5.26846C10.8618 5.27195 11.6466 5.37385 12.3792 5.57703C14.1288 4.39058 14.8975 4.63704 14.8975 4.63704C15.3964 5.90018 15.0825 6.83287 14.9873 7.06384C15.5751 7.70604 15.9308 8.52408 15.9308 9.52526C15.9308 13.0474 13.7863 13.8229 11.7451 14.0499C12.0739 14.3345 12.3669 14.8926 12.3669 15.7481C12.3669 16.9751 12.3562 17.9626 12.3562 18.2647C12.3562 18.5087 12.5212 18.7947 12.9859 18.7046C16.6261 17.4907 19.2494 14.0545 19.2494 10.0042C19.2494 4.93954 15.1452 0.833984 10.0828 0.833984ZM4.34926 13.8972C4.32907 13.9427 4.25742 13.9564 4.19215 13.9251C4.12566 13.8952 4.08832 13.8331 4.10987 13.7874C4.12961 13.7405 4.20141 13.7274 4.26774 13.7588C4.33438 13.7887 4.37233 13.8515 4.34926 13.8972ZM4.80016 14.2997C4.75644 14.3402 4.67098 14.3214 4.613 14.2573C4.55304 14.1934 4.5418 14.1079 4.58613 14.0667C4.63121 14.0262 4.71409 14.0451 4.7742 14.1091C4.83416 14.1738 4.84585 14.2587 4.80016 14.2997ZM5.1095 14.8146C5.05333 14.8536 4.96149 14.8171 4.90472 14.7355C4.84856 14.654 4.84856 14.5562 4.90594 14.517C4.96286 14.4778 5.05333 14.513 5.11086 14.594C5.16688 14.6769 5.16688 14.7747 5.1095 14.8146ZM5.63265 15.411C5.58241 15.4665 5.47539 15.4516 5.39706 15.376C5.31691 15.302 5.2946 15.1971 5.34499 15.1416C5.39585 15.0861 5.50347 15.1017 5.58241 15.1767C5.66195 15.2505 5.68623 15.3562 5.63265 15.411ZM6.30877 15.6124C6.28661 15.6842 6.18354 15.7168 6.07971 15.6863C5.97603 15.6549 5.90818 15.5708 5.92913 15.4982C5.95068 15.4259 6.05421 15.3919 6.1588 15.4245C6.26232 15.4558 6.33033 15.5393 6.30877 15.6124ZM7.07823 15.6978C7.08081 15.7734 6.99277 15.8361 6.88378 15.8375C6.77418 15.8399 6.68553 15.7787 6.68432 15.7043C6.68432 15.6279 6.77039 15.5658 6.87999 15.564C6.98898 15.5619 7.07823 15.6226 7.07823 15.6978ZM7.83414 15.6688C7.84719 15.7426 7.77145 15.8184 7.66322 15.8386C7.55681 15.858 7.45829 15.8124 7.44478 15.7392C7.43157 15.6636 7.50869 15.5878 7.61494 15.5683C7.72333 15.5494 7.82033 15.5938 7.83414 15.6688Z" fill="white"/>
</g>
<defs>
<clipPath id="clip0_311_1318">
<rect width="20" height="20" fill="white" transform="translate(0.5)"/>
</clipPath>
</defs>
</svg>
