<svg xmlns="http://www.w3.org/2000/svg" viewBox="0 0 24 24" fill="none"><path fill-rule="evenodd" clip-rule="evenodd" d="M13 3C13 2.44772 12.5523 2 12 2C11.4477 2 11 2.44772 11 3V4H6.5C4.29086 4 2.5 5.79086 2.5 8V8.26756C1.9022 8.61337 1.5 9.25972 1.5 10C1.5 10.7403 1.9022 11.3866 2.5 11.7324V16C2.5 18.2091 4.29086 20 6.5 20H17.5C19.7091 20 21.5 18.2091 21.5 16V11.7324C22.0978 11.3866 22.5 10.7403 22.5 10C22.5 9.25972 22.0978 8.61337 21.5 8.26756V8C21.5 5.79086 19.7091 4 17.5 4H13V3ZM8.5 8.5C7.67157 8.5 7 9.17157 7 10C7 10.8284 7.67157 11.5 8.5 11.5C9.32843 11.5 10 10.8284 10 10C10 9.17157 9.32843 8.5 8.5 8.5ZM15.5 8.5C14.6716 8.5 14 9.17157 14 10C14 10.8284 14.6716 11.5 15.5 11.5C16.3284 11.5 17 10.8284 17 10C17 9.17157 16.3284 8.5 15.5 8.5ZM10 14C9.44772 14 9 14.4477 9 15C9 15.5523 9.44772 16 10 16H14C14.5523 16 15 15.5523 15 15C15 14.4477 14.5523 14 14 14H10Z" fill="black"/></svg>
